<?xml version="1.0" encoding="UTF-8" standalone="no"?>
<!DOCTYPE svg PUBLIC "-//W3C//DTD SVG 1.1//EN"
 "http://www.w3.org/Graphics/SVG/1.1/DTD/svg11.dtd">
<!-- Generated by graphviz version 2.38.0 (20140413.2041)
 -->
<!-- Title: %3 Pages: 1 -->
<svg width="532pt" height="260pt"
 viewBox="0.00 0.00 531.58 260.00" xmlns="http://www.w3.org/2000/svg" xmlns:xlink="http://www.w3.org/1999/xlink">
<g id="graph0" class="graph" transform="scale(1 1) rotate(0) translate(4 256)">
<title>%3</title>
<polygon fill="white" stroke="none" points="-4,4 -4,-256 527.578,-256 527.578,4 -4,4"/>
<!-- 0 -->
<g id="node1" class="node"><title>0</title>
<ellipse fill="none" stroke="black" cx="27" cy="-90" rx="27" ry="18"/>
<text text-anchor="middle" x="27" y="-85.8" font-family="Times,serif" font-size="14.00">He</text>
</g>
<!-- 1 -->
<g id="node2" class="node"><title>1</title>
<ellipse fill="none" stroke="black" cx="78" cy="-162" rx="35.2875" ry="18"/>
<text text-anchor="middle" x="78" y="-157.8" font-family="Times,serif" font-size="14.00">Subj^S</text>
</g>
<!-- 1&#45;&gt;0 -->
<g id="edge1" class="edge"><title>1&#45;&gt;0</title>
<path fill="none" stroke="black" d="M66.1714,-144.765C59.7079,-135.893 51.5806,-124.738 44.4067,-114.892"/>
<polygon fill="black" stroke="black" points="47.1311,-112.687 38.4136,-106.666 41.4734,-116.809 47.1311,-112.687"/>
</g>
<!-- 2 -->
<g id="node3" class="node"><title>2</title>
<ellipse fill="none" stroke="black" cx="85" cy="-18" rx="27" ry="18"/>
<text text-anchor="middle" x="85" y="-13.8" font-family="Times,serif" font-size="14.00">shot</text>
</g>
<!-- 3 -->
<g id="node4" class="node"><title>3</title>
<ellipse fill="none" stroke="black" cx="114" cy="-90" rx="42.0201" ry="18"/>
<text text-anchor="middle" x="114" y="-85.8" font-family="Times,serif" font-size="14.00">Verb^VP</text>
</g>
<!-- 3&#45;&gt;2 -->
<g id="edge2" class="edge"><title>3&#45;&gt;2</title>
<path fill="none" stroke="black" d="M106.98,-72.055C103.632,-63.9726 99.5503,-54.1214 95.8177,-45.1117"/>
<polygon fill="black" stroke="black" points="99.0164,-43.688 91.9554,-35.789 92.5494,-46.3672 99.0164,-43.688"/>
</g>
<!-- 4 -->
<g id="node5" class="node"><title>4</title>
<ellipse fill="none" stroke="black" cx="157" cy="-18" rx="27" ry="18"/>
<text text-anchor="middle" x="157" y="-13.8" font-family="Times,serif" font-size="14.00">the</text>
</g>
<!-- 5 -->
<g id="node6" class="node"><title>5</title>
<ellipse fill="none" stroke="black" cx="242" cy="-18" rx="40.123" ry="18"/>
<text text-anchor="middle" x="242" y="-13.8" font-family="Times,serif" font-size="14.00">elephant</text>
</g>
<!-- 6 -->
<g id="node7" class="node"><title>6</title>
<ellipse fill="none" stroke="black" cx="213" cy="-90" rx="38.6538" ry="18"/>
<text text-anchor="middle" x="213" y="-85.8" font-family="Times,serif" font-size="14.00">Obj^VP</text>
</g>
<!-- 6&#45;&gt;4 -->
<g id="edge3" class="edge"><title>6&#45;&gt;4</title>
<path fill="none" stroke="black" d="M200.012,-72.7646C192.742,-63.6773 183.555,-52.1939 175.54,-42.1753"/>
<polygon fill="black" stroke="black" points="178.131,-39.8112 169.151,-34.189 172.665,-44.1841 178.131,-39.8112"/>
</g>
<!-- 6&#45;&gt;5 -->
<g id="edge4" class="edge"><title>6&#45;&gt;5</title>
<path fill="none" stroke="black" d="M220.02,-72.055C223.368,-63.9726 227.45,-54.1214 231.182,-45.1117"/>
<polygon fill="black" stroke="black" points="234.451,-46.3672 235.045,-35.789 227.984,-43.688 234.451,-46.3672"/>
</g>
<!-- 7 -->
<g id="node8" class="node"><title>7</title>
<ellipse fill="none" stroke="black" cx="327" cy="-18" rx="27" ry="18"/>
<text text-anchor="middle" x="327" y="-13.8" font-family="Times,serif" font-size="14.00">in</text>
</g>
<!-- 8 -->
<g id="node9" class="node"><title>8</title>
<ellipse fill="none" stroke="black" cx="399" cy="-18" rx="27" ry="18"/>
<text text-anchor="middle" x="399" y="-13.8" font-family="Times,serif" font-size="14.00">his</text>
</g>
<!-- 9 -->
<g id="node10" class="node"><title>9</title>
<ellipse fill="none" stroke="black" cx="484" cy="-18" rx="39.6558" ry="18"/>
<text text-anchor="middle" x="484" y="-13.8" font-family="Times,serif" font-size="14.00">pyjamas</text>
</g>
<!-- 10 -->
<g id="node11" class="node"><title>10</title>
<ellipse fill="none" stroke="black" cx="363" cy="-90" rx="35.2961" ry="18"/>
<text text-anchor="middle" x="363" y="-85.8" font-family="Times,serif" font-size="14.00">PP^VP</text>
</g>
<!-- 10&#45;&gt;7 -->
<g id="edge5" class="edge"><title>10&#45;&gt;7</title>
<path fill="none" stroke="black" d="M354.469,-72.411C350.164,-64.0421 344.851,-53.7098 340.047,-44.3698"/>
<polygon fill="black" stroke="black" points="343.156,-42.7621 335.47,-35.4699 336.931,-45.9636 343.156,-42.7621"/>
</g>
<!-- 10&#45;&gt;8 -->
<g id="edge6" class="edge"><title>10&#45;&gt;8</title>
<path fill="none" stroke="black" d="M371.531,-72.411C375.836,-64.0421 381.149,-53.7098 385.953,-44.3698"/>
<polygon fill="black" stroke="black" points="389.069,-45.9636 390.53,-35.4699 382.844,-42.7621 389.069,-45.9636"/>
</g>
<!-- 10&#45;&gt;9 -->
<g id="edge7" class="edge"><title>10&#45;&gt;9</title>
<path fill="none" stroke="black" d="M385.476,-75.9976C404.05,-65.2519 430.667,-49.8539 451.554,-37.7706"/>
<polygon fill="black" stroke="black" points="453.502,-40.687 460.405,-32.6499 449.997,-34.6279 453.502,-40.687"/>
</g>
<!-- 11 -->
<g id="node12" class="node"><title>11</title>
<ellipse fill="none" stroke="black" cx="163" cy="-162" rx="30.4592" ry="18"/>
<text text-anchor="middle" x="163" y="-157.8" font-family="Times,serif" font-size="14.00">VP^S</text>
</g>
<!-- 11&#45;&gt;3 -->
<g id="edge8" class="edge"><title>11&#45;&gt;3</title>
<path fill="none" stroke="black" d="M151.881,-145.116C145.914,-136.592 138.42,-125.886 131.676,-116.251"/>
<polygon fill="black" stroke="black" points="134.36,-113.983 125.758,-107.797 128.625,-117.997 134.36,-113.983"/>
</g>
<!-- 11&#45;&gt;6 -->
<g id="edge9" class="edge"><title>11&#45;&gt;6</title>
<path fill="none" stroke="black" d="M174.346,-145.116C180.586,-136.38 188.462,-125.353 195.475,-115.535"/>
<polygon fill="black" stroke="black" points="198.388,-117.479 201.352,-107.307 192.692,-113.41 198.388,-117.479"/>
</g>
<!-- 11&#45;&gt;10 -->
<g id="edge10" class="edge"><title>11&#45;&gt;10</title>
<path fill="none" stroke="black" d="M188.737,-151.992C223.361,-139.874 285.197,-118.231 325.134,-104.253"/>
<polygon fill="black" stroke="black" points="326.503,-107.482 334.786,-100.875 324.191,-100.875 326.503,-107.482"/>
</g>
<!-- 12 -->
<g id="node13" class="node"><title>12</title>
<ellipse fill="none" stroke="black" cx="120" cy="-234" rx="32.8647" ry="18"/>
<text text-anchor="middle" x="120" y="-229.8" font-family="Times,serif" font-size="14.00">S^null</text>
</g>
<!-- 12&#45;&gt;1 -->
<g id="edge11" class="edge"><title>12&#45;&gt;1</title>
<path fill="none" stroke="black" d="M110.259,-216.765C105.19,-208.317 98.8796,-197.799 93.1873,-188.312"/>
<polygon fill="black" stroke="black" points="96.1263,-186.408 87.98,-179.633 90.1238,-190.009 96.1263,-186.408"/>
</g>
<!-- 12&#45;&gt;11 -->
<g id="edge12" class="edge"><title>12&#45;&gt;11</title>
<path fill="none" stroke="black" d="M129.973,-216.765C135.237,-208.195 141.811,-197.494 147.704,-187.9"/>
<polygon fill="black" stroke="black" points="150.829,-189.5 153.081,-179.147 144.864,-185.836 150.829,-189.5"/>
</g>
</g>
</svg>
