<?xml version="1.0" encoding="UTF-8" standalone="no"?>
<!DOCTYPE svg PUBLIC "-//W3C//DTD SVG 1.1//EN"
 "http://www.w3.org/Graphics/SVG/1.1/DTD/svg11.dtd">
<!-- Generated by graphviz version 2.38.0 (20140413.2041)
 -->
<!-- Title: %3 Pages: 1 -->
<svg width="535pt" height="260pt"
 viewBox="0.00 0.00 535.30 260.00" xmlns="http://www.w3.org/2000/svg" xmlns:xlink="http://www.w3.org/1999/xlink">
<g id="graph0" class="graph" transform="scale(1 1) rotate(0) translate(4 256)">
<title>%3</title>
<polygon fill="white" stroke="none" points="-4,4 -4,-256 531.296,-256 531.296,4 -4,4"/>
<!-- 0 -->
<g id="node1" class="node"><title>0</title>
<ellipse fill="none" stroke="black" cx="27" cy="-90" rx="27" ry="18"/>
<text text-anchor="middle" x="27" y="-86.3" font-family="Times,serif" font-size="14.00">He</text>
</g>
<!-- 1 -->
<g id="node2" class="node"><title>1</title>
<ellipse fill="none" stroke="black" cx="80" cy="-162" rx="36.2938" ry="18"/>
<text text-anchor="middle" x="80" y="-158.3" font-family="Times,serif" font-size="14.00">Subj^S</text>
</g>
<!-- 1&#45;&gt;0 -->
<g id="edge1" class="edge"><title>1&#45;&gt;0</title>
<path fill="none" stroke="black" d="M67.7075,-144.765C60.9905,-135.893 52.5445,-124.738 45.0893,-114.892"/>
<polygon fill="black" stroke="black" points="47.6881,-112.526 38.8612,-106.666 42.1072,-116.751 47.6881,-112.526"/>
</g>
<!-- 2 -->
<g id="node3" class="node"><title>2</title>
<ellipse fill="none" stroke="black" cx="88" cy="-18" rx="27" ry="18"/>
<text text-anchor="middle" x="88" y="-14.3" font-family="Times,serif" font-size="14.00">shot</text>
</g>
<!-- 3 -->
<g id="node4" class="node"><title>3</title>
<ellipse fill="none" stroke="black" cx="116" cy="-90" rx="44.393" ry="18"/>
<text text-anchor="middle" x="116" y="-86.3" font-family="Times,serif" font-size="14.00">Verb^VP</text>
</g>
<!-- 3&#45;&gt;2 -->
<g id="edge2" class="edge"><title>3&#45;&gt;2</title>
<path fill="none" stroke="black" d="M109.222,-72.055C105.989,-63.9726 102.049,-54.1214 98.4447,-45.1117"/>
<polygon fill="black" stroke="black" points="101.679,-43.7739 94.7156,-35.789 95.1799,-46.3737 101.679,-43.7739"/>
</g>
<!-- 4 -->
<g id="node5" class="node"><title>4</title>
<ellipse fill="none" stroke="black" cx="160" cy="-18" rx="27" ry="18"/>
<text text-anchor="middle" x="160" y="-14.3" font-family="Times,serif" font-size="14.00">the</text>
</g>
<!-- 5 -->
<g id="node6" class="node"><title>5</title>
<ellipse fill="none" stroke="black" cx="245" cy="-18" rx="40.0939" ry="18"/>
<text text-anchor="middle" x="245" y="-14.3" font-family="Times,serif" font-size="14.00">elephant</text>
</g>
<!-- 6 -->
<g id="node7" class="node"><title>6</title>
<ellipse fill="none" stroke="black" cx="218" cy="-90" rx="39.7935" ry="18"/>
<text text-anchor="middle" x="218" y="-86.3" font-family="Times,serif" font-size="14.00">Obj^VP</text>
</g>
<!-- 6&#45;&gt;4 -->
<g id="edge3" class="edge"><title>6&#45;&gt;4</title>
<path fill="none" stroke="black" d="M204.548,-72.7646C197.018,-63.6773 187.504,-52.1939 179.202,-42.1753"/>
<polygon fill="black" stroke="black" points="181.66,-39.6561 172.585,-34.189 176.27,-44.1223 181.66,-39.6561"/>
</g>
<!-- 6&#45;&gt;5 -->
<g id="edge4" class="edge"><title>6&#45;&gt;5</title>
<path fill="none" stroke="black" d="M224.536,-72.055C227.62,-64.0586 231.372,-54.3308 234.817,-45.3995"/>
<polygon fill="black" stroke="black" points="238.191,-46.3786 238.524,-35.789 231.66,-43.8594 238.191,-46.3786"/>
</g>
<!-- 7 -->
<g id="node8" class="node"><title>7</title>
<ellipse fill="none" stroke="black" cx="330" cy="-18" rx="27" ry="18"/>
<text text-anchor="middle" x="330" y="-14.3" font-family="Times,serif" font-size="14.00">in</text>
</g>
<!-- 8 -->
<g id="node9" class="node"><title>8</title>
<ellipse fill="none" stroke="black" cx="402" cy="-18" rx="27" ry="18"/>
<text text-anchor="middle" x="402" y="-14.3" font-family="Times,serif" font-size="14.00">his</text>
</g>
<!-- 9 -->
<g id="node10" class="node"><title>9</title>
<ellipse fill="none" stroke="black" cx="487" cy="-18" rx="40.0939" ry="18"/>
<text text-anchor="middle" x="487" y="-14.3" font-family="Times,serif" font-size="14.00">pyjamas</text>
</g>
<!-- 10 -->
<g id="node11" class="node"><title>10</title>
<ellipse fill="none" stroke="black" cx="366" cy="-90" rx="36.2938" ry="18"/>
<text text-anchor="middle" x="366" y="-86.3" font-family="Times,serif" font-size="14.00">PP^VP</text>
</g>
<!-- 10&#45;&gt;7 -->
<g id="edge5" class="edge"><title>10&#45;&gt;7</title>
<path fill="none" stroke="black" d="M357.469,-72.411C353.164,-64.0421 347.851,-53.7098 343.047,-44.3698"/>
<polygon fill="black" stroke="black" points="346.156,-42.7621 338.47,-35.4699 339.931,-45.9636 346.156,-42.7621"/>
</g>
<!-- 10&#45;&gt;8 -->
<g id="edge6" class="edge"><title>10&#45;&gt;8</title>
<path fill="none" stroke="black" d="M374.531,-72.411C378.836,-64.0421 384.149,-53.7098 388.953,-44.3698"/>
<polygon fill="black" stroke="black" points="392.069,-45.9636 393.53,-35.4699 385.844,-42.7621 392.069,-45.9636"/>
</g>
<!-- 10&#45;&gt;9 -->
<g id="edge7" class="edge"><title>10&#45;&gt;9</title>
<path fill="none" stroke="black" d="M388.759,-75.8335C407.246,-65.1389 433.56,-49.9159 454.302,-37.9162"/>
<polygon fill="black" stroke="black" points="456.198,-40.863 463.101,-32.8258 452.693,-34.8039 456.198,-40.863"/>
</g>
<!-- 11 -->
<g id="node12" class="node"><title>11</title>
<ellipse fill="none" stroke="black" cx="167" cy="-162" rx="31.3957" ry="18"/>
<text text-anchor="middle" x="167" y="-158.3" font-family="Times,serif" font-size="14.00">VP^S</text>
</g>
<!-- 11&#45;&gt;3 -->
<g id="edge8" class="edge"><title>11&#45;&gt;3</title>
<path fill="none" stroke="black" d="M155.427,-145.116C149.154,-136.505 141.258,-125.667 134.183,-115.957"/>
<polygon fill="black" stroke="black" points="136.956,-113.819 128.238,-107.797 131.298,-117.941 136.956,-113.819"/>
</g>
<!-- 11&#45;&gt;6 -->
<g id="edge9" class="edge"><title>11&#45;&gt;6</title>
<path fill="none" stroke="black" d="M178.573,-145.116C184.937,-136.38 192.972,-125.353 200.124,-115.535"/>
<polygon fill="black" stroke="black" points="203.059,-117.45 206.119,-107.307 197.402,-113.328 203.059,-117.45"/>
</g>
<!-- 11&#45;&gt;10 -->
<g id="edge10" class="edge"><title>11&#45;&gt;10</title>
<path fill="none" stroke="black" d="M193.016,-151.849C227.3,-139.789 287.884,-118.478 327.486,-104.548"/>
<polygon fill="black" stroke="black" points="328.802,-107.795 337.074,-101.175 326.479,-101.192 328.802,-107.795"/>
</g>
<!-- 12 -->
<g id="node13" class="node"><title>12</title>
<ellipse fill="none" stroke="black" cx="123" cy="-234" rx="27" ry="18"/>
<text text-anchor="middle" x="123" y="-230.3" font-family="Times,serif" font-size="14.00">S^?</text>
</g>
<!-- 12&#45;&gt;1 -->
<g id="edge11" class="edge"><title>12&#45;&gt;1</title>
<path fill="none" stroke="black" d="M113.243,-217.116C107.931,-208.469 101.239,-197.575 95.2546,-187.833"/>
<polygon fill="black" stroke="black" points="98.2337,-185.996 90.0172,-179.307 92.2691,-189.66 98.2337,-185.996"/>
</g>
<!-- 12&#45;&gt;11 -->
<g id="edge12" class="edge"><title>12&#45;&gt;11</title>
<path fill="none" stroke="black" d="M132.984,-217.116C138.42,-208.469 145.267,-197.575 151.391,-187.833"/>
<polygon fill="black" stroke="black" points="154.391,-189.636 156.75,-179.307 148.465,-185.911 154.391,-189.636"/>
</g>
</g>
</svg>
