<?xml version="1.0" encoding="UTF-8" standalone="no"?>
<!DOCTYPE svg PUBLIC "-//W3C//DTD SVG 1.1//EN"
 "http://www.w3.org/Graphics/SVG/1.1/DTD/svg11.dtd">
<!-- Generated by graphviz version 2.38.0 (20140413.2041)
 -->
<!-- Title: %3 Pages: 1 -->
<svg width="506pt" height="260pt"
 viewBox="0.00 0.00 506.30 260.00" xmlns="http://www.w3.org/2000/svg" xmlns:xlink="http://www.w3.org/1999/xlink">
<g id="graph0" class="graph" transform="scale(1 1) rotate(0) translate(4 256)">
<title>%3</title>
<polygon fill="white" stroke="none" points="-4,4 -4,-256 502.296,-256 502.296,4 -4,4"/>
<!-- 0 -->
<g id="node1" class="node"><title>0</title>
<ellipse fill="none" stroke="black" cx="27" cy="-90" rx="27" ry="18"/>
<text text-anchor="middle" x="27" y="-86.3" font-family="Times,serif" font-size="14.00">He</text>
</g>
<!-- 1 -->
<g id="node2" class="node"><title>1</title>
<ellipse fill="none" stroke="black" cx="65" cy="-162" rx="27" ry="18"/>
<text text-anchor="middle" x="65" y="-158.3" font-family="Times,serif" font-size="14.00">Subj</text>
</g>
<!-- 1&#45;&gt;0 -->
<g id="edge1" class="edge"><title>1&#45;&gt;0</title>
<path fill="none" stroke="black" d="M56.1865,-144.765C51.5823,-136.283 45.845,-125.714 40.6786,-116.197"/>
<polygon fill="black" stroke="black" points="43.6126,-114.266 35.7657,-107.147 37.4607,-117.606 43.6126,-114.266"/>
</g>
<!-- 2 -->
<g id="node3" class="node"><title>2</title>
<ellipse fill="none" stroke="black" cx="59" cy="-18" rx="27" ry="18"/>
<text text-anchor="middle" x="59" y="-14.3" font-family="Times,serif" font-size="14.00">shot</text>
</g>
<!-- 3 -->
<g id="node4" class="node"><title>3</title>
<ellipse fill="none" stroke="black" cx="101" cy="-90" rx="28.6953" ry="18"/>
<text text-anchor="middle" x="101" y="-86.3" font-family="Times,serif" font-size="14.00">Verb</text>
</g>
<!-- 3&#45;&gt;2 -->
<g id="edge2" class="edge"><title>3&#45;&gt;2</title>
<path fill="none" stroke="black" d="M91.2588,-72.7646C86.1169,-64.1948 79.6964,-53.494 73.9402,-43.9004"/>
<polygon fill="black" stroke="black" points="76.8346,-41.9215 68.6884,-35.1473 70.8322,-45.523 76.8346,-41.9215"/>
</g>
<!-- 4 -->
<g id="node5" class="node"><title>4</title>
<ellipse fill="none" stroke="black" cx="131" cy="-18" rx="27" ry="18"/>
<text text-anchor="middle" x="131" y="-14.3" font-family="Times,serif" font-size="14.00">the</text>
</g>
<!-- 5 -->
<g id="node6" class="node"><title>5</title>
<ellipse fill="none" stroke="black" cx="216" cy="-18" rx="40.0939" ry="18"/>
<text text-anchor="middle" x="216" y="-14.3" font-family="Times,serif" font-size="14.00">elephant</text>
</g>
<!-- 6 -->
<g id="node7" class="node"><title>6</title>
<ellipse fill="none" stroke="black" cx="175" cy="-90" rx="27" ry="18"/>
<text text-anchor="middle" x="175" y="-86.3" font-family="Times,serif" font-size="14.00">Obj</text>
</g>
<!-- 6&#45;&gt;4 -->
<g id="edge3" class="edge"><title>6&#45;&gt;4</title>
<path fill="none" stroke="black" d="M165.016,-73.1159C159.503,-64.345 152.537,-53.2637 146.347,-43.4162"/>
<polygon fill="black" stroke="black" points="149.23,-41.425 140.945,-34.8212 143.303,-45.1502 149.23,-41.425"/>
</g>
<!-- 6&#45;&gt;5 -->
<g id="edge4" class="edge"><title>6&#45;&gt;5</title>
<path fill="none" stroke="black" d="M184.509,-72.7646C189.457,-64.3172 195.618,-53.7993 201.174,-44.3122"/>
<polygon fill="black" stroke="black" points="204.224,-46.0312 206.258,-35.6334 198.183,-42.4933 204.224,-46.0312"/>
</g>
<!-- 7 -->
<g id="node8" class="node"><title>7</title>
<ellipse fill="none" stroke="black" cx="301" cy="-18" rx="27" ry="18"/>
<text text-anchor="middle" x="301" y="-14.3" font-family="Times,serif" font-size="14.00">in</text>
</g>
<!-- 8 -->
<g id="node9" class="node"><title>8</title>
<ellipse fill="none" stroke="black" cx="373" cy="-18" rx="27" ry="18"/>
<text text-anchor="middle" x="373" y="-14.3" font-family="Times,serif" font-size="14.00">his</text>
</g>
<!-- 9 -->
<g id="node10" class="node"><title>9</title>
<ellipse fill="none" stroke="black" cx="458" cy="-18" rx="40.0939" ry="18"/>
<text text-anchor="middle" x="458" y="-14.3" font-family="Times,serif" font-size="14.00">pyjamas</text>
</g>
<!-- 10 -->
<g id="node11" class="node"><title>10</title>
<ellipse fill="none" stroke="black" cx="337" cy="-90" rx="27" ry="18"/>
<text text-anchor="middle" x="337" y="-86.3" font-family="Times,serif" font-size="14.00">PP</text>
</g>
<!-- 10&#45;&gt;7 -->
<g id="edge5" class="edge"><title>10&#45;&gt;7</title>
<path fill="none" stroke="black" d="M328.65,-72.7646C324.288,-64.2831 318.853,-53.7144 313.959,-44.1974"/>
<polygon fill="black" stroke="black" points="316.99,-42.4395 309.304,-35.1473 310.765,-45.6409 316.99,-42.4395"/>
</g>
<!-- 10&#45;&gt;8 -->
<g id="edge6" class="edge"><title>10&#45;&gt;8</title>
<path fill="none" stroke="black" d="M345.35,-72.7646C349.712,-64.2831 355.147,-53.7144 360.041,-44.1974"/>
<polygon fill="black" stroke="black" points="363.235,-45.6409 364.696,-35.1473 357.01,-42.4395 363.235,-45.6409"/>
</g>
<!-- 10&#45;&gt;9 -->
<g id="edge7" class="edge"><title>10&#45;&gt;9</title>
<path fill="none" stroke="black" d="M356.71,-77.5975C375.309,-66.8378 403.535,-50.5089 425.47,-37.8188"/>
<polygon fill="black" stroke="black" points="427.234,-40.8421 434.137,-32.8049 423.729,-34.783 427.234,-40.8421"/>
</g>
<!-- 11 -->
<g id="node12" class="node"><title>11</title>
<ellipse fill="none" stroke="black" cx="138" cy="-162" rx="27" ry="18"/>
<text text-anchor="middle" x="138" y="-158.3" font-family="Times,serif" font-size="14.00">VP</text>
</g>
<!-- 11&#45;&gt;3 -->
<g id="edge8" class="edge"><title>11&#45;&gt;3</title>
<path fill="none" stroke="black" d="M129.418,-144.765C124.999,-136.404 119.508,-126.016 114.535,-116.606"/>
<polygon fill="black" stroke="black" points="117.559,-114.839 109.792,-107.633 111.371,-118.11 117.559,-114.839"/>
</g>
<!-- 11&#45;&gt;6 -->
<g id="edge9" class="edge"><title>11&#45;&gt;6</title>
<path fill="none" stroke="black" d="M146.582,-144.765C151.065,-136.283 156.651,-125.714 161.681,-116.197"/>
<polygon fill="black" stroke="black" points="164.886,-117.624 166.465,-107.147 158.698,-114.353 164.886,-117.624"/>
</g>
<!-- 11&#45;&gt;10 -->
<g id="edge10" class="edge"><title>11&#45;&gt;10</title>
<path fill="none" stroke="black" d="M161.609,-152.695C197.011,-140.242 263.971,-116.689 304.132,-102.562"/>
<polygon fill="black" stroke="black" points="305.457,-105.806 313.729,-99.1857 303.134,-99.2023 305.457,-105.806"/>
</g>
<!-- 12 -->
<g id="node13" class="node"><title>12</title>
<ellipse fill="none" stroke="black" cx="101" cy="-234" rx="27" ry="18"/>
<text text-anchor="middle" x="101" y="-230.3" font-family="Times,serif" font-size="14.00">S</text>
</g>
<!-- 12&#45;&gt;1 -->
<g id="edge11" class="edge"><title>12&#45;&gt;1</title>
<path fill="none" stroke="black" d="M92.6504,-216.765C88.2885,-208.283 82.8531,-197.714 77.9587,-188.197"/>
<polygon fill="black" stroke="black" points="80.9904,-186.439 73.3043,-179.147 74.7654,-189.641 80.9904,-186.439"/>
</g>
<!-- 12&#45;&gt;11 -->
<g id="edge12" class="edge"><title>12&#45;&gt;11</title>
<path fill="none" stroke="black" d="M109.582,-216.765C114.065,-208.283 119.651,-197.714 124.681,-188.197"/>
<polygon fill="black" stroke="black" points="127.886,-189.624 129.465,-179.147 121.698,-186.353 127.886,-189.624"/>
</g>
</g>
</svg>
