<?xml version="1.0" encoding="UTF-8" standalone="no"?>
<!DOCTYPE svg PUBLIC "-//W3C//DTD SVG 1.1//EN"
 "http://www.w3.org/Graphics/SVG/1.1/DTD/svg11.dtd">
<!-- Generated by graphviz version 2.38.0 (20140413.2041)
 -->
<!-- Title: %3 Pages: 1 -->
<svg width="295pt" height="188pt"
 viewBox="0.00 0.00 295.45 188.00" xmlns="http://www.w3.org/2000/svg" xmlns:xlink="http://www.w3.org/1999/xlink">
<g id="graph0" class="graph" transform="scale(1 1) rotate(0) translate(4 184)">
<title>%3</title>
<polygon fill="white" stroke="none" points="-4,4 -4,-184 291.447,-184 291.447,4 -4,4"/>
<!-- 0 -->
<g id="node1" class="node"><title>0</title>
<ellipse fill="none" stroke="black" cx="34.4469" cy="-18" rx="34.394" ry="18"/>
<text text-anchor="middle" x="34.4469" y="-14.3" font-family="Times,serif" font-size="14.00">Matko</text>
</g>
<!-- 1 -->
<g id="node2" class="node"><title>1</title>
<ellipse fill="none" stroke="black" cx="113.447" cy="-18" rx="27" ry="18"/>
<text text-anchor="middle" x="113.447" y="-14.3" font-family="Times,serif" font-size="14.00">raps</text>
</g>
<!-- 2 -->
<g id="node3" class="node"><title>2</title>
<ellipse fill="none" stroke="black" cx="111.447" cy="-90" rx="30.5947" ry="18"/>
<text text-anchor="middle" x="111.447" y="-86.3" font-family="Times,serif" font-size="14.00">NP_p</text>
</g>
<!-- 2&#45;&gt;0 -->
<g id="edge1" class="edge"><title>2&#45;&gt;0</title>
<path fill="none" stroke="black" d="M95.4925,-74.496C84.7965,-64.7723 70.516,-51.79 58.4564,-40.8268"/>
<polygon fill="black" stroke="black" points="60.666,-38.1054 50.9122,-33.9684 55.9573,-43.285 60.666,-38.1054"/>
</g>
<!-- 2&#45;&gt;1 -->
<g id="edge2" class="edge"><title>2&#45;&gt;1</title>
<path fill="none" stroke="black" d="M111.941,-71.6966C112.162,-63.9827 112.427,-54.7125 112.672,-46.1124"/>
<polygon fill="black" stroke="black" points="116.171,-46.2002 112.958,-36.1043 109.174,-46.0003 116.171,-46.2002"/>
</g>
<!-- 3 -->
<g id="node4" class="node"><title>3</title>
<ellipse fill="none" stroke="black" cx="188.447" cy="-18" rx="27" ry="18"/>
<text text-anchor="middle" x="188.447" y="-14.3" font-family="Times,serif" font-size="14.00">are</text>
</g>
<!-- 4 -->
<g id="node5" class="node"><title>4</title>
<ellipse fill="none" stroke="black" cx="260.447" cy="-18" rx="27" ry="18"/>
<text text-anchor="middle" x="260.447" y="-14.3" font-family="Times,serif" font-size="14.00">silly</text>
</g>
<!-- 5 -->
<g id="node6" class="node"><title>5</title>
<ellipse fill="none" stroke="black" cx="190.447" cy="-90" rx="30.5947" ry="18"/>
<text text-anchor="middle" x="190.447" y="-86.3" font-family="Times,serif" font-size="14.00">VP_p</text>
</g>
<!-- 5&#45;&gt;3 -->
<g id="edge3" class="edge"><title>5&#45;&gt;3</title>
<path fill="none" stroke="black" d="M189.953,-71.6966C189.732,-63.9827 189.467,-54.7125 189.222,-46.1124"/>
<polygon fill="black" stroke="black" points="192.72,-46.0003 188.936,-36.1043 185.723,-46.2002 192.72,-46.0003"/>
</g>
<!-- 5&#45;&gt;4 -->
<g id="edge4" class="edge"><title>5&#45;&gt;4</title>
<path fill="none" stroke="black" d="M205.292,-74.1548C215.074,-64.3725 228.043,-51.4037 238.947,-40.4996"/>
<polygon fill="black" stroke="black" points="241.506,-42.891 246.102,-33.345 236.556,-37.9413 241.506,-42.891"/>
</g>
<!-- 6 -->
<g id="node7" class="node"><title>6</title>
<ellipse fill="none" stroke="black" cx="150.447" cy="-162" rx="27" ry="18"/>
<text text-anchor="middle" x="150.447" y="-158.3" font-family="Times,serif" font-size="14.00">S</text>
</g>
<!-- 6&#45;&gt;2 -->
<g id="edge5" class="edge"><title>6&#45;&gt;2</title>
<path fill="none" stroke="black" d="M141.402,-144.765C136.744,-136.404 130.956,-126.016 125.713,-116.606"/>
<polygon fill="black" stroke="black" points="128.639,-114.666 120.714,-107.633 122.524,-118.073 128.639,-114.666"/>
</g>
<!-- 6&#45;&gt;5 -->
<g id="edge6" class="edge"><title>6&#45;&gt;5</title>
<path fill="none" stroke="black" d="M159.724,-144.765C164.502,-136.404 170.438,-126.016 175.815,-116.606"/>
<polygon fill="black" stroke="black" points="179.02,-118.052 180.942,-107.633 172.942,-114.579 179.02,-118.052"/>
</g>
</g>
</svg>
