<?xml version="1.0" encoding="UTF-8" standalone="no"?>
<!DOCTYPE svg PUBLIC "-//W3C//DTD SVG 1.1//EN"
 "http://www.w3.org/Graphics/SVG/1.1/DTD/svg11.dtd">
<!-- Generated by graphviz version 2.38.0 (20140413.2041)
 -->
<!-- Title: %3 Pages: 1 -->
<svg width="354pt" height="260pt"
 viewBox="0.00 0.00 353.65 260.00" xmlns="http://www.w3.org/2000/svg" xmlns:xlink="http://www.w3.org/1999/xlink">
<g id="graph0" class="graph" transform="scale(1 1) rotate(0) translate(4 256)">
<title>%3</title>
<polygon fill="white" stroke="none" points="-4,4 -4,-256 349.646,-256 349.646,4 -4,4"/>
<!-- 0 -->
<g id="node1" class="node"><title>0</title>
<ellipse fill="none" stroke="black" cx="39.6465" cy="-18" rx="34.394" ry="18"/>
<text text-anchor="middle" x="39.6465" y="-14.3" font-family="Times,serif" font-size="14.00">Matko</text>
</g>
<!-- 1 -->
<g id="node2" class="node"><title>1</title>
<ellipse fill="none" stroke="black" cx="39.6465" cy="-90" rx="39.7935" ry="18"/>
<text text-anchor="middle" x="39.6465" y="-86.3" font-family="Times,serif" font-size="14.00">NP_p_0</text>
</g>
<!-- 1&#45;&gt;0 -->
<g id="edge1" class="edge"><title>1&#45;&gt;0</title>
<path fill="none" stroke="black" d="M39.6465,-71.6966C39.6465,-63.9827 39.6465,-54.7125 39.6465,-46.1124"/>
<polygon fill="black" stroke="black" points="43.1466,-46.1043 39.6465,-36.1043 36.1466,-46.1044 43.1466,-46.1043"/>
</g>
<!-- 2 -->
<g id="node3" class="node"><title>2</title>
<ellipse fill="none" stroke="black" cx="136.646" cy="-18" rx="27" ry="18"/>
<text text-anchor="middle" x="136.646" y="-14.3" font-family="Times,serif" font-size="14.00">raps</text>
</g>
<!-- 3 -->
<g id="node4" class="node"><title>3</title>
<ellipse fill="none" stroke="black" cx="136.646" cy="-90" rx="39.7935" ry="18"/>
<text text-anchor="middle" x="136.646" y="-86.3" font-family="Times,serif" font-size="14.00">NP_p_1</text>
</g>
<!-- 3&#45;&gt;2 -->
<g id="edge2" class="edge"><title>3&#45;&gt;2</title>
<path fill="none" stroke="black" d="M136.646,-71.6966C136.646,-63.9827 136.646,-54.7125 136.646,-46.1124"/>
<polygon fill="black" stroke="black" points="140.147,-46.1043 136.646,-36.1043 133.147,-46.1044 140.147,-46.1043"/>
</g>
<!-- 4 -->
<g id="node5" class="node"><title>4</title>
<ellipse fill="none" stroke="black" cx="136.646" cy="-162" rx="30.5947" ry="18"/>
<text text-anchor="middle" x="136.646" y="-158.3" font-family="Times,serif" font-size="14.00">NP_p</text>
</g>
<!-- 4&#45;&gt;1 -->
<g id="edge3" class="edge"><title>4&#45;&gt;1</title>
<path fill="none" stroke="black" d="M117.944,-147.503C103.916,-137.38 84.4575,-123.338 68.4486,-111.785"/>
<polygon fill="black" stroke="black" points="70.1233,-108.677 59.9661,-105.664 66.0269,-114.354 70.1233,-108.677"/>
</g>
<!-- 4&#45;&gt;3 -->
<g id="edge4" class="edge"><title>4&#45;&gt;3</title>
<path fill="none" stroke="black" d="M136.646,-143.697C136.646,-135.983 136.646,-126.712 136.646,-118.112"/>
<polygon fill="black" stroke="black" points="140.147,-118.104 136.646,-108.104 133.147,-118.104 140.147,-118.104"/>
</g>
<!-- 5 -->
<g id="node6" class="node"><title>5</title>
<ellipse fill="none" stroke="black" cx="233.646" cy="-18" rx="27" ry="18"/>
<text text-anchor="middle" x="233.646" y="-14.3" font-family="Times,serif" font-size="14.00">are</text>
</g>
<!-- 6 -->
<g id="node7" class="node"><title>6</title>
<ellipse fill="none" stroke="black" cx="233.646" cy="-90" rx="39.7935" ry="18"/>
<text text-anchor="middle" x="233.646" y="-86.3" font-family="Times,serif" font-size="14.00">VP_p_2</text>
</g>
<!-- 6&#45;&gt;5 -->
<g id="edge5" class="edge"><title>6&#45;&gt;5</title>
<path fill="none" stroke="black" d="M233.646,-71.6966C233.646,-63.9827 233.646,-54.7125 233.646,-46.1124"/>
<polygon fill="black" stroke="black" points="237.147,-46.1043 233.646,-36.1043 230.147,-46.1044 237.147,-46.1043"/>
</g>
<!-- 7 -->
<g id="node8" class="node"><title>7</title>
<ellipse fill="none" stroke="black" cx="318.646" cy="-18" rx="27" ry="18"/>
<text text-anchor="middle" x="318.646" y="-14.3" font-family="Times,serif" font-size="14.00">silly</text>
</g>
<!-- 8 -->
<g id="node9" class="node"><title>8</title>
<ellipse fill="none" stroke="black" cx="318.646" cy="-90" rx="27" ry="18"/>
<text text-anchor="middle" x="318.646" y="-86.3" font-family="Times,serif" font-size="14.00">ADJ</text>
</g>
<!-- 8&#45;&gt;7 -->
<g id="edge6" class="edge"><title>8&#45;&gt;7</title>
<path fill="none" stroke="black" d="M318.646,-71.6966C318.646,-63.9827 318.646,-54.7125 318.646,-46.1124"/>
<polygon fill="black" stroke="black" points="322.147,-46.1043 318.646,-36.1043 315.147,-46.1044 322.147,-46.1043"/>
</g>
<!-- 9 -->
<g id="node10" class="node"><title>9</title>
<ellipse fill="none" stroke="black" cx="233.646" cy="-162" rx="30.5947" ry="18"/>
<text text-anchor="middle" x="233.646" y="-158.3" font-family="Times,serif" font-size="14.00">VP_p</text>
</g>
<!-- 9&#45;&gt;6 -->
<g id="edge7" class="edge"><title>9&#45;&gt;6</title>
<path fill="none" stroke="black" d="M233.646,-143.697C233.646,-135.983 233.646,-126.712 233.646,-118.112"/>
<polygon fill="black" stroke="black" points="237.147,-118.104 233.646,-108.104 230.147,-118.104 237.147,-118.104"/>
</g>
<!-- 9&#45;&gt;8 -->
<g id="edge8" class="edge"><title>9&#45;&gt;8</title>
<path fill="none" stroke="black" d="M250.848,-146.834C263.418,-136.482 280.632,-122.306 294.569,-110.828"/>
<polygon fill="black" stroke="black" points="296.842,-113.491 302.336,-104.432 292.392,-108.087 296.842,-113.491"/>
</g>
<!-- 10 -->
<g id="node11" class="node"><title>10</title>
<ellipse fill="none" stroke="black" cx="184.646" cy="-234" rx="27" ry="18"/>
<text text-anchor="middle" x="184.646" y="-230.3" font-family="Times,serif" font-size="14.00">S</text>
</g>
<!-- 10&#45;&gt;4 -->
<g id="edge9" class="edge"><title>10&#45;&gt;4</title>
<path fill="none" stroke="black" d="M173.755,-217.116C167.825,-208.469 160.355,-197.575 153.675,-187.833"/>
<polygon fill="black" stroke="black" points="156.37,-185.575 147.828,-179.307 150.597,-189.534 156.37,-185.575"/>
</g>
<!-- 10&#45;&gt;9 -->
<g id="edge10" class="edge"><title>10&#45;&gt;9</title>
<path fill="none" stroke="black" d="M195.521,-217.465C201.714,-208.617 209.611,-197.337 216.609,-187.339"/>
<polygon fill="black" stroke="black" points="219.595,-189.177 222.462,-178.977 213.86,-185.162 219.595,-189.177"/>
</g>
</g>
</svg>
