<?xml version="1.0" encoding="UTF-8" standalone="no"?>
<!DOCTYPE svg PUBLIC "-//W3C//DTD SVG 1.1//EN"
 "http://www.w3.org/Graphics/SVG/1.1/DTD/svg11.dtd">
<!-- Generated by graphviz version 2.38.0 (20140413.2041)
 -->
<!-- Title: %3 Pages: 1 -->
<svg width="295pt" height="260pt"
 viewBox="0.00 0.00 295.45 260.00" xmlns="http://www.w3.org/2000/svg" xmlns:xlink="http://www.w3.org/1999/xlink">
<g id="graph0" class="graph" transform="scale(1 1) rotate(0) translate(4 256)">
<title>%3</title>
<polygon fill="white" stroke="none" points="-4,4 -4,-256 291.447,-256 291.447,4 -4,4"/>
<!-- 0 -->
<g id="node1" class="node"><title>0</title>
<ellipse fill="none" stroke="black" cx="34.4469" cy="-90" rx="34.394" ry="18"/>
<text text-anchor="middle" x="34.4469" y="-86.3" font-family="Times,serif" font-size="14.00">Matko</text>
</g>
<!-- 1 -->
<g id="node2" class="node"><title>1</title>
<ellipse fill="none" stroke="black" cx="113.447" cy="-90" rx="27" ry="18"/>
<text text-anchor="middle" x="113.447" y="-86.3" font-family="Times,serif" font-size="14.00">raps</text>
</g>
<!-- 2 -->
<g id="node3" class="node"><title>2</title>
<ellipse fill="none" stroke="black" cx="111.447" cy="-162" rx="30.5947" ry="18"/>
<text text-anchor="middle" x="111.447" y="-158.3" font-family="Times,serif" font-size="14.00">NP_p</text>
</g>
<!-- 2&#45;&gt;0 -->
<g id="edge1" class="edge"><title>2&#45;&gt;0</title>
<path fill="none" stroke="black" d="M95.4925,-146.496C84.7965,-136.772 70.516,-123.79 58.4564,-112.827"/>
<polygon fill="black" stroke="black" points="60.666,-110.105 50.9122,-105.968 55.9573,-115.285 60.666,-110.105"/>
</g>
<!-- 2&#45;&gt;1 -->
<g id="edge2" class="edge"><title>2&#45;&gt;1</title>
<path fill="none" stroke="black" d="M111.941,-143.697C112.162,-135.983 112.427,-126.712 112.672,-118.112"/>
<polygon fill="black" stroke="black" points="116.171,-118.2 112.958,-108.104 109.174,-118 116.171,-118.2"/>
</g>
<!-- 3 -->
<g id="node4" class="node"><title>3</title>
<ellipse fill="none" stroke="black" cx="188.447" cy="-90" rx="27" ry="18"/>
<text text-anchor="middle" x="188.447" y="-86.3" font-family="Times,serif" font-size="14.00">are</text>
</g>
<!-- 4 -->
<g id="node5" class="node"><title>4</title>
<ellipse fill="none" stroke="black" cx="260.447" cy="-18" rx="27" ry="18"/>
<text text-anchor="middle" x="260.447" y="-14.3" font-family="Times,serif" font-size="14.00">silly</text>
</g>
<!-- 5 -->
<g id="node6" class="node"><title>5</title>
<ellipse fill="none" stroke="black" cx="260.447" cy="-90" rx="27" ry="18"/>
<text text-anchor="middle" x="260.447" y="-86.3" font-family="Times,serif" font-size="14.00">ADJ</text>
</g>
<!-- 5&#45;&gt;4 -->
<g id="edge3" class="edge"><title>5&#45;&gt;4</title>
<path fill="none" stroke="black" d="M260.447,-71.6966C260.447,-63.9827 260.447,-54.7125 260.447,-46.1124"/>
<polygon fill="black" stroke="black" points="263.947,-46.1043 260.447,-36.1043 256.947,-46.1044 263.947,-46.1043"/>
</g>
<!-- 6 -->
<g id="node7" class="node"><title>6</title>
<ellipse fill="none" stroke="black" cx="190.447" cy="-162" rx="30.5947" ry="18"/>
<text text-anchor="middle" x="190.447" y="-158.3" font-family="Times,serif" font-size="14.00">VP_p</text>
</g>
<!-- 6&#45;&gt;3 -->
<g id="edge4" class="edge"><title>6&#45;&gt;3</title>
<path fill="none" stroke="black" d="M189.953,-143.697C189.732,-135.983 189.467,-126.712 189.222,-118.112"/>
<polygon fill="black" stroke="black" points="192.72,-118 188.936,-108.104 185.723,-118.2 192.72,-118"/>
</g>
<!-- 6&#45;&gt;5 -->
<g id="edge5" class="edge"><title>6&#45;&gt;5</title>
<path fill="none" stroke="black" d="M205.292,-146.155C215.074,-136.372 228.043,-123.404 238.947,-112.5"/>
<polygon fill="black" stroke="black" points="241.506,-114.891 246.102,-105.345 236.556,-109.941 241.506,-114.891"/>
</g>
<!-- 7 -->
<g id="node8" class="node"><title>7</title>
<ellipse fill="none" stroke="black" cx="150.447" cy="-234" rx="27" ry="18"/>
<text text-anchor="middle" x="150.447" y="-230.3" font-family="Times,serif" font-size="14.00">S</text>
</g>
<!-- 7&#45;&gt;2 -->
<g id="edge6" class="edge"><title>7&#45;&gt;2</title>
<path fill="none" stroke="black" d="M141.402,-216.765C136.744,-208.404 130.956,-198.016 125.713,-188.606"/>
<polygon fill="black" stroke="black" points="128.639,-186.666 120.714,-179.633 122.524,-190.073 128.639,-186.666"/>
</g>
<!-- 7&#45;&gt;6 -->
<g id="edge7" class="edge"><title>7&#45;&gt;6</title>
<path fill="none" stroke="black" d="M159.724,-216.765C164.502,-208.404 170.438,-198.016 175.815,-188.606"/>
<polygon fill="black" stroke="black" points="179.02,-190.052 180.942,-179.633 172.942,-186.579 179.02,-190.052"/>
</g>
</g>
</svg>
