<?xml version="1.0" encoding="UTF-8" standalone="no"?>
<!DOCTYPE svg PUBLIC "-//W3C//DTD SVG 1.1//EN"
 "http://www.w3.org/Graphics/SVG/1.1/DTD/svg11.dtd">
<!-- Generated by graphviz version 2.38.0 (20140413.2041)
 -->
<!-- Title: %3 Pages: 1 -->
<svg width="455pt" height="332pt"
 viewBox="0.00 0.00 455.30 332.00" xmlns="http://www.w3.org/2000/svg" xmlns:xlink="http://www.w3.org/1999/xlink">
<g id="graph0" class="graph" transform="scale(1 1) rotate(0) translate(4 328)">
<title>%3</title>
<polygon fill="white" stroke="none" points="-4,4 -4,-328 451.296,-328 451.296,4 -4,4"/>
<!-- 0 -->
<g id="node1" class="node"><title>0</title>
<ellipse fill="none" stroke="black" cx="27" cy="-162" rx="27" ry="18"/>
<text text-anchor="middle" x="27" y="-158.3" font-family="Times,serif" font-size="14.00">He</text>
</g>
<!-- 1 -->
<g id="node2" class="node"><title>1</title>
<ellipse fill="none" stroke="black" cx="28" cy="-234" rx="27" ry="18"/>
<text text-anchor="middle" x="28" y="-230.3" font-family="Times,serif" font-size="14.00">Subj</text>
</g>
<!-- 1&#45;&gt;0 -->
<g id="edge1" class="edge"><title>1&#45;&gt;0</title>
<path fill="none" stroke="black" d="M27.7528,-215.697C27.6426,-207.983 27.5102,-198.712 27.3873,-190.112"/>
<polygon fill="black" stroke="black" points="30.8869,-190.053 27.2443,-180.104 23.8876,-190.153 30.8869,-190.053"/>
</g>
<!-- 2 -->
<g id="node3" class="node"><title>2</title>
<ellipse fill="none" stroke="black" cx="80" cy="-90" rx="27" ry="18"/>
<text text-anchor="middle" x="80" y="-86.3" font-family="Times,serif" font-size="14.00">shot</text>
</g>
<!-- 3 -->
<g id="node4" class="node"><title>3</title>
<ellipse fill="none" stroke="black" cx="101" cy="-162" rx="28.6953" ry="18"/>
<text text-anchor="middle" x="101" y="-158.3" font-family="Times,serif" font-size="14.00">Verb</text>
</g>
<!-- 3&#45;&gt;2 -->
<g id="edge2" class="edge"><title>3&#45;&gt;2</title>
<path fill="none" stroke="black" d="M95.9165,-144.055C93.5176,-136.059 90.5992,-126.331 87.9199,-117.4"/>
<polygon fill="black" stroke="black" points="91.2626,-116.362 85.0367,-107.789 84.5579,-118.373 91.2626,-116.362"/>
</g>
<!-- 4 -->
<g id="node5" class="node"><title>4</title>
<ellipse fill="none" stroke="black" cx="152" cy="-90" rx="27" ry="18"/>
<text text-anchor="middle" x="152" y="-86.3" font-family="Times,serif" font-size="14.00">the</text>
</g>
<!-- 5 -->
<g id="node6" class="node"><title>5</title>
<ellipse fill="none" stroke="black" cx="237" cy="-90" rx="40.0939" ry="18"/>
<text text-anchor="middle" x="237" y="-86.3" font-family="Times,serif" font-size="14.00">elephant</text>
</g>
<!-- 6 -->
<g id="node7" class="node"><title>6</title>
<ellipse fill="none" stroke="black" cx="250" cy="-18" rx="27" ry="18"/>
<text text-anchor="middle" x="250" y="-14.3" font-family="Times,serif" font-size="14.00">in</text>
</g>
<!-- 7 -->
<g id="node8" class="node"><title>7</title>
<ellipse fill="none" stroke="black" cx="322" cy="-18" rx="27" ry="18"/>
<text text-anchor="middle" x="322" y="-14.3" font-family="Times,serif" font-size="14.00">his</text>
</g>
<!-- 8 -->
<g id="node9" class="node"><title>8</title>
<ellipse fill="none" stroke="black" cx="407" cy="-18" rx="40.0939" ry="18"/>
<text text-anchor="middle" x="407" y="-14.3" font-family="Times,serif" font-size="14.00">pyjamas</text>
</g>
<!-- 9 -->
<g id="node10" class="node"><title>9</title>
<ellipse fill="none" stroke="black" cx="322" cy="-90" rx="27" ry="18"/>
<text text-anchor="middle" x="322" y="-86.3" font-family="Times,serif" font-size="14.00">PP</text>
</g>
<!-- 9&#45;&gt;6 -->
<g id="edge3" class="edge"><title>9&#45;&gt;6</title>
<path fill="none" stroke="black" d="M307.43,-74.8345C297.25,-64.9376 283.476,-51.5462 271.969,-40.3591"/>
<polygon fill="black" stroke="black" points="274.405,-37.8461 264.796,-33.3847 269.526,-42.865 274.405,-37.8461"/>
</g>
<!-- 9&#45;&gt;7 -->
<g id="edge4" class="edge"><title>9&#45;&gt;7</title>
<path fill="none" stroke="black" d="M322,-71.6966C322,-63.9827 322,-54.7125 322,-46.1124"/>
<polygon fill="black" stroke="black" points="325.5,-46.1043 322,-36.1043 318.5,-46.1044 325.5,-46.1043"/>
</g>
<!-- 9&#45;&gt;8 -->
<g id="edge5" class="edge"><title>9&#45;&gt;8</title>
<path fill="none" stroke="black" d="M338.389,-75.5033C350.406,-65.6065 366.972,-51.9644 380.815,-40.5644"/>
<polygon fill="black" stroke="black" points="383.101,-43.2155 388.596,-34.1566 378.651,-37.812 383.101,-43.2155"/>
</g>
<!-- 10 -->
<g id="node11" class="node"><title>10</title>
<ellipse fill="none" stroke="black" cx="196" cy="-162" rx="27" ry="18"/>
<text text-anchor="middle" x="196" y="-158.3" font-family="Times,serif" font-size="14.00">Obj</text>
</g>
<!-- 10&#45;&gt;4 -->
<g id="edge6" class="edge"><title>10&#45;&gt;4</title>
<path fill="none" stroke="black" d="M186.016,-145.116C180.503,-136.345 173.537,-125.264 167.347,-115.416"/>
<polygon fill="black" stroke="black" points="170.23,-113.425 161.945,-106.821 164.303,-117.15 170.23,-113.425"/>
</g>
<!-- 10&#45;&gt;5 -->
<g id="edge7" class="edge"><title>10&#45;&gt;5</title>
<path fill="none" stroke="black" d="M205.509,-144.765C210.457,-136.317 216.618,-125.799 222.174,-116.312"/>
<polygon fill="black" stroke="black" points="225.224,-118.031 227.258,-107.633 219.183,-114.493 225.224,-118.031"/>
</g>
<!-- 10&#45;&gt;9 -->
<g id="edge8" class="edge"><title>10&#45;&gt;9</title>
<path fill="none" stroke="black" d="M216.244,-149.753C237.002,-138.221 269.484,-120.175 292.975,-107.125"/>
<polygon fill="black" stroke="black" points="294.764,-110.135 301.806,-102.219 291.365,-104.016 294.764,-110.135"/>
</g>
<!-- 11 -->
<g id="node12" class="node"><title>11</title>
<ellipse fill="none" stroke="black" cx="101" cy="-234" rx="27" ry="18"/>
<text text-anchor="middle" x="101" y="-230.3" font-family="Times,serif" font-size="14.00">VP</text>
</g>
<!-- 11&#45;&gt;3 -->
<g id="edge9" class="edge"><title>11&#45;&gt;3</title>
<path fill="none" stroke="black" d="M101,-215.697C101,-207.983 101,-198.712 101,-190.112"/>
<polygon fill="black" stroke="black" points="104.5,-190.104 101,-180.104 97.5001,-190.104 104.5,-190.104"/>
</g>
<!-- 11&#45;&gt;10 -->
<g id="edge10" class="edge"><title>11&#45;&gt;10</title>
<path fill="none" stroke="black" d="M118.424,-220.161C132.93,-209.473 153.792,-194.101 170.229,-181.989"/>
<polygon fill="black" stroke="black" points="172.39,-184.744 178.364,-175.995 168.237,-179.109 172.39,-184.744"/>
</g>
<!-- 12 -->
<g id="node13" class="node"><title>12</title>
<ellipse fill="none" stroke="black" cx="64" cy="-306" rx="27" ry="18"/>
<text text-anchor="middle" x="64" y="-302.3" font-family="Times,serif" font-size="14.00">S</text>
</g>
<!-- 12&#45;&gt;1 -->
<g id="edge11" class="edge"><title>12&#45;&gt;1</title>
<path fill="none" stroke="black" d="M55.6504,-288.765C51.2885,-280.283 45.8531,-269.714 40.9587,-260.197"/>
<polygon fill="black" stroke="black" points="43.9904,-258.439 36.3043,-251.147 37.7654,-261.641 43.9904,-258.439"/>
</g>
<!-- 12&#45;&gt;11 -->
<g id="edge12" class="edge"><title>12&#45;&gt;11</title>
<path fill="none" stroke="black" d="M72.5815,-288.765C77.0646,-280.283 82.651,-269.714 87.6814,-260.197"/>
<polygon fill="black" stroke="black" points="90.8862,-261.624 92.465,-251.147 84.6975,-258.353 90.8862,-261.624"/>
</g>
</g>
</svg>
