<?xml version="1.0" encoding="UTF-8" standalone="no"?>
<!DOCTYPE svg PUBLIC "-//W3C//DTD SVG 1.1//EN"
 "http://www.w3.org/Graphics/SVG/1.1/DTD/svg11.dtd">
<!-- Generated by graphviz version 2.38.0 (20140413.2041)
 -->
<!-- Title: %3 Pages: 1 -->
<svg width="320pt" height="188pt"
 viewBox="0.00 0.00 320.39 188.00" xmlns="http://www.w3.org/2000/svg" xmlns:xlink="http://www.w3.org/1999/xlink">
<g id="graph0" class="graph" transform="scale(1 1) rotate(0) translate(4 184)">
<title>%3</title>
<polygon fill="white" stroke="none" points="-4,4 -4,-184 316.393,-184 316.393,4 -4,4"/>
<!-- 0 -->
<g id="node1" class="node"><title>0</title>
<ellipse fill="none" stroke="black" cx="34.4469" cy="-18" rx="34.394" ry="18"/>
<text text-anchor="middle" x="34.4469" y="-14.3" font-family="Times,serif" font-size="14.00">Matko</text>
</g>
<!-- 1 -->
<g id="node2" class="node"><title>1</title>
<ellipse fill="none" stroke="black" cx="34.4469" cy="-90" rx="29.795" ry="18"/>
<text text-anchor="middle" x="34.4469" y="-86.3" font-family="Times,serif" font-size="14.00">NP_s</text>
</g>
<!-- 1&#45;&gt;0 -->
<g id="edge1" class="edge"><title>1&#45;&gt;0</title>
<path fill="none" stroke="black" d="M34.4469,-71.6966C34.4469,-63.9827 34.4469,-54.7125 34.4469,-46.1124"/>
<polygon fill="black" stroke="black" points="37.947,-46.1043 34.4469,-36.1043 30.947,-46.1044 37.947,-46.1043"/>
</g>
<!-- 2 -->
<g id="node3" class="node"><title>2</title>
<ellipse fill="none" stroke="black" cx="113.447" cy="-18" rx="27" ry="18"/>
<text text-anchor="middle" x="113.447" y="-14.3" font-family="Times,serif" font-size="14.00">raps</text>
</g>
<!-- 3 -->
<g id="node4" class="node"><title>3</title>
<ellipse fill="none" stroke="black" cx="185.447" cy="-18" rx="27" ry="18"/>
<text text-anchor="middle" x="185.447" y="-14.3" font-family="Times,serif" font-size="14.00">in</text>
</g>
<!-- 4 -->
<g id="node5" class="node"><title>4</title>
<ellipse fill="none" stroke="black" cx="271.447" cy="-18" rx="40.8928" ry="18"/>
<text text-anchor="middle" x="271.447" y="-14.3" font-family="Times,serif" font-size="14.00">StatNLP</text>
</g>
<!-- 5 -->
<g id="node6" class="node"><title>5</title>
<ellipse fill="none" stroke="black" cx="149.447" cy="-90" rx="29.795" ry="18"/>
<text text-anchor="middle" x="149.447" y="-86.3" font-family="Times,serif" font-size="14.00">VP_s</text>
</g>
<!-- 5&#45;&gt;2 -->
<g id="edge2" class="edge"><title>5&#45;&gt;2</title>
<path fill="none" stroke="black" d="M140.915,-72.411C136.611,-64.0421 131.298,-53.7098 126.494,-44.3698"/>
<polygon fill="black" stroke="black" points="129.603,-42.7621 121.917,-35.4699 123.378,-45.9636 129.603,-42.7621"/>
</g>
<!-- 5&#45;&gt;3 -->
<g id="edge3" class="edge"><title>5&#45;&gt;3</title>
<path fill="none" stroke="black" d="M157.978,-72.411C162.282,-64.0421 167.596,-53.7098 172.4,-44.3698"/>
<polygon fill="black" stroke="black" points="175.516,-45.9636 176.977,-35.4699 169.291,-42.7621 175.516,-45.9636"/>
</g>
<!-- 5&#45;&gt;4 -->
<g id="edge4" class="edge"><title>5&#45;&gt;4</title>
<path fill="none" stroke="black" d="M170.419,-76.9666C189.138,-66.2266 216.859,-50.3211 238.53,-37.8865"/>
<polygon fill="black" stroke="black" points="240.472,-40.8077 247.404,-32.7951 236.988,-34.7361 240.472,-40.8077"/>
</g>
<!-- 6 -->
<g id="node7" class="node"><title>6</title>
<ellipse fill="none" stroke="black" cx="73.4469" cy="-162" rx="27" ry="18"/>
<text text-anchor="middle" x="73.4469" y="-158.3" font-family="Times,serif" font-size="14.00">S</text>
</g>
<!-- 6&#45;&gt;1 -->
<g id="edge5" class="edge"><title>6&#45;&gt;1</title>
<path fill="none" stroke="black" d="M64.4015,-144.765C59.7436,-136.404 53.9558,-126.016 48.7131,-116.606"/>
<polygon fill="black" stroke="black" points="51.6387,-114.666 43.7141,-107.633 45.5237,-118.073 51.6387,-114.666"/>
</g>
<!-- 6&#45;&gt;5 -->
<g id="edge6" class="edge"><title>6&#45;&gt;5</title>
<path fill="none" stroke="black" d="M88.8267,-146.834C99.5719,-136.938 114.111,-123.546 126.257,-112.359"/>
<polygon fill="black" stroke="black" points="128.845,-114.734 133.829,-105.385 124.103,-109.585 128.845,-114.734"/>
</g>
</g>
</svg>
