<?xml version="1.0" encoding="UTF-8" standalone="no"?>
<!DOCTYPE svg PUBLIC "-//W3C//DTD SVG 1.1//EN"
 "http://www.w3.org/Graphics/SVG/1.1/DTD/svg11.dtd">
<!-- Generated by graphviz version 2.38.0 (20140413.2041)
 -->
<!-- Title: %3 Pages: 1 -->
<svg width="384pt" height="116pt"
 viewBox="0.00 0.00 383.83 116.00" xmlns="http://www.w3.org/2000/svg" xmlns:xlink="http://www.w3.org/1999/xlink">
<g id="graph0" class="graph" transform="scale(1 1) rotate(0) translate(4 112)">
<title>%3</title>
<polygon fill="white" stroke="none" points="-4,4 -4,-112 379.83,-112 379.83,4 -4,4"/>
<!-- A -->
<g id="node1" class="node"><title>A</title>
<ellipse fill="none" stroke="black" cx="186.916" cy="-90" rx="53.1958" ry="18"/>
<text text-anchor="middle" x="186.916" y="-85.8" font-family="Times,serif" font-size="14.00">King Arthur</text>
</g>
<!-- B -->
<g id="node2" class="node"><title>B</title>
<ellipse fill="none" stroke="black" cx="88.9164" cy="-18" rx="88.833" ry="18"/>
<text text-anchor="middle" x="88.9164" y="-13.8" font-family="Times,serif" font-size="14.00">Sir Bedevere the Wise</text>
</g>
<!-- A&#45;&gt;B -->
<g id="edge1" class="edge"><title>A&#45;&gt;B</title>
<path fill="none" stroke="black" d="M165.167,-73.4647C151.968,-64.0371 134.902,-51.8466 120.262,-41.3897"/>
<polygon fill="black" stroke="black" points="122.142,-38.4315 111.97,-35.4672 118.073,-44.1277 122.142,-38.4315"/>
</g>
<!-- L -->
<g id="node3" class="node"><title>L</title>
<ellipse fill="none" stroke="black" cx="285.916" cy="-18" rx="89.8279" ry="18"/>
<text text-anchor="middle" x="285.916" y="-13.8" font-family="Times,serif" font-size="14.00">Sir Lancelot the Brave</text>
</g>
<!-- A&#45;&gt;L -->
<g id="edge2" class="edge"><title>A&#45;&gt;L</title>
<path fill="none" stroke="black" d="M208.888,-73.4647C222.221,-64.0371 239.462,-51.8466 254.251,-41.3897"/>
<polygon fill="black" stroke="black" points="256.483,-44.0983 262.627,-35.4672 252.441,-38.3827 256.483,-44.0983"/>
</g>
</g>
</svg>
