<?xml version="1.0" encoding="UTF-8" standalone="no"?>
<!DOCTYPE svg PUBLIC "-//W3C//DTD SVG 1.1//EN"
 "http://www.w3.org/Graphics/SVG/1.1/DTD/svg11.dtd">
<!-- Generated by graphviz version 2.38.0 (20140413.2041)
 -->
<!-- Title: %3 Pages: 1 -->
<svg width="655pt" height="178pt"
 viewBox="0.00 0.00 655.00 178.00" xmlns="http://www.w3.org/2000/svg" xmlns:xlink="http://www.w3.org/1999/xlink">
<g id="graph0" class="graph" transform="scale(1 1) rotate(0) translate(4 173.997)">
<title>%3</title>
<polygon fill="white" stroke="none" points="-4,4 -4,-173.997 651,-173.997 651,4 -4,4"/>
<!-- x -->
<g id="node1" class="node"><title>x</title>
<ellipse fill="lightgrey" stroke="black" cx="323.5" cy="-18" rx="18" ry="18"/>
<text text-anchor="middle" x="323.5" y="-14.3" font-family="Times,serif" font-size="14.00">x</text>
</g>
<!-- p(y1 | x, 1) -->
<g id="node2" class="node"><title>p(y1 | x, 1)</title>
<polygon fill="black" stroke="black" points="77,-95 0,-95 0,-72 77,-72 77,-95"/>
<text text-anchor="middle" x="38.5" y="-79.8" font-family="Times,serif" font-size="14.00" fill="white">p(y1 | x, 1)</text>
</g>
<!-- p(y1 | x, 1)&#45;&#45;x -->
<g id="edge2" class="edge"><title>p(y1 | x, 1)&#45;&#45;x</title>
<path fill="none" stroke="black" d="M77.2282,-73.8458C80.0274,-73.2209 82.8071,-72.6006 85.5,-72 167.926,-53.6152 266.422,-31.6977 305.883,-22.9188"/>
</g>
<!-- y1 -->
<g id="node3" class="node"><title>y1</title>
<ellipse fill="none" stroke="black" cx="38.5" cy="-150.498" rx="19.4965" ry="19.4965"/>
<text text-anchor="middle" x="38.5" y="-146.798" font-family="Times,serif" font-size="14.00">y1</text>
</g>
<!-- y1&#45;&#45;p(y1 | x, 1) -->
<g id="edge1" class="edge"><title>y1&#45;&#45;p(y1 | x, 1)</title>
<path fill="none" stroke="black" d="M38.5,-130.698C38.5,-119.15 38.5,-104.778 38.5,-95.1581"/>
</g>
<!-- p(y2 | x, 2) -->
<g id="node4" class="node"><title>p(y2 | x, 2)</title>
<polygon fill="black" stroke="black" points="172,-95 95,-95 95,-72 172,-72 172,-95"/>
<text text-anchor="middle" x="133.5" y="-79.8" font-family="Times,serif" font-size="14.00" fill="white">p(y2 | x, 2)</text>
</g>
<!-- p(y2 | x, 2)&#45;&#45;x -->
<g id="edge4" class="edge"><title>p(y2 | x, 2)&#45;&#45;x</title>
<path fill="none" stroke="black" d="M165.302,-71.8715C205.868,-58.3139 274.571,-35.3525 306.388,-24.7191"/>
</g>
<!-- y2 -->
<g id="node5" class="node"><title>y2</title>
<ellipse fill="none" stroke="black" cx="133.5" cy="-150.498" rx="19.4965" ry="19.4965"/>
<text text-anchor="middle" x="133.5" y="-146.798" font-family="Times,serif" font-size="14.00">y2</text>
</g>
<!-- y2&#45;&#45;p(y2 | x, 2) -->
<g id="edge3" class="edge"><title>y2&#45;&#45;p(y2 | x, 2)</title>
<path fill="none" stroke="black" d="M133.5,-130.698C133.5,-119.15 133.5,-104.778 133.5,-95.1581"/>
</g>
<!-- p(y3 | x, 3) -->
<g id="node6" class="node"><title>p(y3 | x, 3)</title>
<polygon fill="black" stroke="black" points="267,-95 190,-95 190,-72 267,-72 267,-95"/>
<text text-anchor="middle" x="228.5" y="-79.8" font-family="Times,serif" font-size="14.00" fill="white">p(y3 | x, 3)</text>
</g>
<!-- p(y3 | x, 3)&#45;&#45;x -->
<g id="edge6" class="edge"><title>p(y3 | x, 3)&#45;&#45;x</title>
<path fill="none" stroke="black" d="M244.615,-71.7281C262.614,-59.6974 291.495,-40.393 308.868,-28.7805"/>
</g>
<!-- y3 -->
<g id="node7" class="node"><title>y3</title>
<ellipse fill="none" stroke="black" cx="228.5" cy="-150.498" rx="19.4965" ry="19.4965"/>
<text text-anchor="middle" x="228.5" y="-146.798" font-family="Times,serif" font-size="14.00">y3</text>
</g>
<!-- y3&#45;&#45;p(y3 | x, 3) -->
<g id="edge5" class="edge"><title>y3&#45;&#45;p(y3 | x, 3)</title>
<path fill="none" stroke="black" d="M228.5,-130.698C228.5,-119.15 228.5,-104.778 228.5,-95.1581"/>
</g>
<!-- p(y4 | x, 4) -->
<g id="node8" class="node"><title>p(y4 | x, 4)</title>
<polygon fill="black" stroke="black" points="362,-95 285,-95 285,-72 362,-72 362,-95"/>
<text text-anchor="middle" x="323.5" y="-79.8" font-family="Times,serif" font-size="14.00" fill="white">p(y4 | x, 4)</text>
</g>
<!-- p(y4 | x, 4)&#45;&#45;x -->
<g id="edge8" class="edge"><title>p(y4 | x, 4)&#45;&#45;x</title>
<path fill="none" stroke="black" d="M323.5,-71.7281C323.5,-61.962 323.5,-47.4028 323.5,-36.056"/>
</g>
<!-- y4 -->
<g id="node9" class="node"><title>y4</title>
<ellipse fill="none" stroke="black" cx="323.5" cy="-150.498" rx="19.4965" ry="19.4965"/>
<text text-anchor="middle" x="323.5" y="-146.798" font-family="Times,serif" font-size="14.00">y4</text>
</g>
<!-- y4&#45;&#45;p(y4 | x, 4) -->
<g id="edge7" class="edge"><title>y4&#45;&#45;p(y4 | x, 4)</title>
<path fill="none" stroke="black" d="M323.5,-130.698C323.5,-119.15 323.5,-104.778 323.5,-95.1581"/>
</g>
<!-- p(y5 | x, 5) -->
<g id="node10" class="node"><title>p(y5 | x, 5)</title>
<polygon fill="black" stroke="black" points="457,-95 380,-95 380,-72 457,-72 457,-95"/>
<text text-anchor="middle" x="418.5" y="-79.8" font-family="Times,serif" font-size="14.00" fill="white">p(y5 | x, 5)</text>
</g>
<!-- p(y5 | x, 5)&#45;&#45;x -->
<g id="edge10" class="edge"><title>p(y5 | x, 5)&#45;&#45;x</title>
<path fill="none" stroke="black" d="M402.385,-71.7281C384.386,-59.6974 355.505,-40.393 338.132,-28.7805"/>
</g>
<!-- y5 -->
<g id="node11" class="node"><title>y5</title>
<ellipse fill="none" stroke="black" cx="418.5" cy="-150.498" rx="19.4965" ry="19.4965"/>
<text text-anchor="middle" x="418.5" y="-146.798" font-family="Times,serif" font-size="14.00">y5</text>
</g>
<!-- y5&#45;&#45;p(y5 | x, 5) -->
<g id="edge9" class="edge"><title>y5&#45;&#45;p(y5 | x, 5)</title>
<path fill="none" stroke="black" d="M418.5,-130.698C418.5,-119.15 418.5,-104.778 418.5,-95.1581"/>
</g>
<!-- p(y6 | x, 6) -->
<g id="node12" class="node"><title>p(y6 | x, 6)</title>
<polygon fill="black" stroke="black" points="552,-95 475,-95 475,-72 552,-72 552,-95"/>
<text text-anchor="middle" x="513.5" y="-79.8" font-family="Times,serif" font-size="14.00" fill="white">p(y6 | x, 6)</text>
</g>
<!-- p(y6 | x, 6)&#45;&#45;x -->
<g id="edge12" class="edge"><title>p(y6 | x, 6)&#45;&#45;x</title>
<path fill="none" stroke="black" d="M481.698,-71.8715C441.132,-58.3139 372.429,-35.3525 340.612,-24.7191"/>
</g>
<!-- y6 -->
<g id="node13" class="node"><title>y6</title>
<ellipse fill="none" stroke="black" cx="513.5" cy="-150.498" rx="19.4965" ry="19.4965"/>
<text text-anchor="middle" x="513.5" y="-146.798" font-family="Times,serif" font-size="14.00">y6</text>
</g>
<!-- y6&#45;&#45;p(y6 | x, 6) -->
<g id="edge11" class="edge"><title>y6&#45;&#45;p(y6 | x, 6)</title>
<path fill="none" stroke="black" d="M513.5,-130.698C513.5,-119.15 513.5,-104.778 513.5,-95.1581"/>
</g>
<!-- p(y7 | x, 7) -->
<g id="node14" class="node"><title>p(y7 | x, 7)</title>
<polygon fill="black" stroke="black" points="647,-95 570,-95 570,-72 647,-72 647,-95"/>
<text text-anchor="middle" x="608.5" y="-79.8" font-family="Times,serif" font-size="14.00" fill="white">p(y7 | x, 7)</text>
</g>
<!-- p(y7 | x, 7)&#45;&#45;x -->
<g id="edge14" class="edge"><title>p(y7 | x, 7)&#45;&#45;x</title>
<path fill="none" stroke="black" d="M569.767,-73.87C507.062,-59.899 385.81,-32.883 340.837,-22.8629"/>
</g>
<!-- y7 -->
<g id="node15" class="node"><title>y7</title>
<ellipse fill="none" stroke="black" cx="608.5" cy="-150.498" rx="19.4965" ry="19.4965"/>
<text text-anchor="middle" x="608.5" y="-146.798" font-family="Times,serif" font-size="14.00">y7</text>
</g>
<!-- y7&#45;&#45;p(y7 | x, 7) -->
<g id="edge13" class="edge"><title>y7&#45;&#45;p(y7 | x, 7)</title>
<path fill="none" stroke="black" d="M608.5,-130.698C608.5,-119.15 608.5,-104.778 608.5,-95.1581"/>
</g>
</g>
</svg>
