<?xml version="1.0" encoding="UTF-8" standalone="no"?>
<!DOCTYPE svg PUBLIC "-//W3C//DTD SVG 1.1//EN"
 "http://www.w3.org/Graphics/SVG/1.1/DTD/svg11.dtd">
<!-- Generated by graphviz version 2.38.0 (20140413.2041)
 -->
<!-- Title: %3 Pages: 1 -->
<svg width="644pt" height="141pt"
 viewBox="0.00 0.00 644.40 140.81" xmlns="http://www.w3.org/2000/svg" xmlns:xlink="http://www.w3.org/1999/xlink">
<g id="graph0" class="graph" transform="scale(1 1) rotate(0) translate(4 136.811)">
<title>%3</title>
<polygon fill="white" stroke="none" points="-4,4 -4,-136.811 640.395,-136.811 640.395,4 -4,4"/>
<!-- x -->
<g id="node1" class="node"><title>x</title>
<ellipse fill="lightgrey" stroke="black" cx="317.445" cy="-18" rx="18" ry="18"/>
<text text-anchor="middle" x="317.445" y="-13.8" font-family="Times,serif" font-size="14.00">x</text>
</g>
<!-- y0 -->
<g id="node2" class="node"><title>y0</title>
<ellipse fill="lightgrey" stroke="black" cx="62.4448" cy="-90.9503" rx="18" ry="18"/>
<text text-anchor="middle" x="62.4448" y="-86.7503" font-family="Times,serif" font-size="14.00">P</text>
</g>
<!-- t1 -->
<g id="node9" class="node"><title>t1</title>
<polygon fill="black" stroke="black" points="26.8347,-101.95 0.0549503,-101.95 0.0549503,-79.9503 26.8347,-79.9503 26.8347,-101.95"/>
<text text-anchor="middle" x="13.4448" y="-86.7503" font-family="Times,serif" font-size="14.00" fill="white">t1</text>
</g>
<!-- y0&#45;&#45;t1 -->
<g id="edge2" class="edge"><title>y0&#45;&#45;t1</title>
<path fill="none" stroke="black" d="M44.3659,-90.9503C38.525,-90.9503 32.6841,-90.9503 26.8433,-90.9503"/>
</g>
<!-- y1 -->
<g id="node3" class="node"><title>y1</title>
<ellipse fill="none" stroke="black" cx="117.445" cy="-90.9503" rx="18.9007" ry="18.9007"/>
<text text-anchor="middle" x="117.445" y="-86.7503" font-family="Times,serif" font-size="14.00">y1</text>
</g>
<!-- y1&#45;&#45;t1 -->
<g id="edge1" class="edge"><title>y1&#45;&#45;t1</title>
<path fill="none" stroke="black" d="M106.374,-106.858C99.8524,-114.792 90.8464,-123.596 80.4448,-127.901 65.6607,-134.019 58.9455,-134.663 44.4448,-127.901 33.0614,-122.592 24.375,-110.818 19.1331,-101.979"/>
</g>
<!-- t2 -->
<g id="node10" class="node"><title>t2</title>
<polygon fill="black" stroke="black" points="180.835,-101.95 154.055,-101.95 154.055,-79.9503 180.835,-79.9503 180.835,-101.95"/>
<text text-anchor="middle" x="167.445" y="-86.7503" font-family="Times,serif" font-size="14.00" fill="white">t2</text>
</g>
<!-- y1&#45;&#45;t2 -->
<g id="edge5" class="edge"><title>y1&#45;&#45;t2</title>
<path fill="none" stroke="black" d="M136.585,-90.9503C142.372,-90.9503 148.158,-90.9503 153.944,-90.9503"/>
</g>
<!-- y2 -->
<g id="node4" class="node"><title>y2</title>
<ellipse fill="none" stroke="black" cx="217.445" cy="-90.9503" rx="18.9007" ry="18.9007"/>
<text text-anchor="middle" x="217.445" y="-86.7503" font-family="Times,serif" font-size="14.00">y2</text>
</g>
<!-- y2&#45;&#45;t2 -->
<g id="edge4" class="edge"><title>y2&#45;&#45;t2</title>
<path fill="none" stroke="black" d="M198.429,-90.9503C192.658,-90.9503 186.888,-90.9503 181.117,-90.9503"/>
</g>
<!-- t3 -->
<g id="node11" class="node"><title>t3</title>
<polygon fill="black" stroke="black" points="280.835,-101.95 254.055,-101.95 254.055,-79.9503 280.835,-79.9503 280.835,-101.95"/>
<text text-anchor="middle" x="267.445" y="-86.7503" font-family="Times,serif" font-size="14.00" fill="white">t3</text>
</g>
<!-- y2&#45;&#45;t3 -->
<g id="edge8" class="edge"><title>y2&#45;&#45;t3</title>
<path fill="none" stroke="black" d="M236.585,-90.9503C242.372,-90.9503 248.158,-90.9503 253.944,-90.9503"/>
</g>
<!-- y3 -->
<g id="node5" class="node"><title>y3</title>
<ellipse fill="none" stroke="black" cx="317.445" cy="-90.9503" rx="18.9007" ry="18.9007"/>
<text text-anchor="middle" x="317.445" y="-86.7503" font-family="Times,serif" font-size="14.00">y3</text>
</g>
<!-- y3&#45;&#45;t3 -->
<g id="edge7" class="edge"><title>y3&#45;&#45;t3</title>
<path fill="none" stroke="black" d="M298.429,-90.9503C292.658,-90.9503 286.888,-90.9503 281.117,-90.9503"/>
</g>
<!-- t4 -->
<g id="node12" class="node"><title>t4</title>
<polygon fill="black" stroke="black" points="380.835,-101.95 354.055,-101.95 354.055,-79.9503 380.835,-79.9503 380.835,-101.95"/>
<text text-anchor="middle" x="367.445" y="-86.7503" font-family="Times,serif" font-size="14.00" fill="white">t4</text>
</g>
<!-- y3&#45;&#45;t4 -->
<g id="edge11" class="edge"><title>y3&#45;&#45;t4</title>
<path fill="none" stroke="black" d="M336.585,-90.9503C342.372,-90.9503 348.158,-90.9503 353.944,-90.9503"/>
</g>
<!-- y4 -->
<g id="node6" class="node"><title>y4</title>
<ellipse fill="none" stroke="black" cx="417.445" cy="-90.9503" rx="18.9007" ry="18.9007"/>
<text text-anchor="middle" x="417.445" y="-86.7503" font-family="Times,serif" font-size="14.00">y4</text>
</g>
<!-- y4&#45;&#45;t4 -->
<g id="edge10" class="edge"><title>y4&#45;&#45;t4</title>
<path fill="none" stroke="black" d="M398.429,-90.9503C392.658,-90.9503 386.888,-90.9503 381.117,-90.9503"/>
</g>
<!-- t5 -->
<g id="node13" class="node"><title>t5</title>
<polygon fill="black" stroke="black" points="480.835,-101.95 454.055,-101.95 454.055,-79.9503 480.835,-79.9503 480.835,-101.95"/>
<text text-anchor="middle" x="467.445" y="-86.7503" font-family="Times,serif" font-size="14.00" fill="white">t5</text>
</g>
<!-- y4&#45;&#45;t5 -->
<g id="edge14" class="edge"><title>y4&#45;&#45;t5</title>
<path fill="none" stroke="black" d="M436.585,-90.9503C442.372,-90.9503 448.158,-90.9503 453.944,-90.9503"/>
</g>
<!-- y5 -->
<g id="node7" class="node"><title>y5</title>
<ellipse fill="none" stroke="black" cx="517.445" cy="-90.9503" rx="18.9007" ry="18.9007"/>
<text text-anchor="middle" x="517.445" y="-86.7503" font-family="Times,serif" font-size="14.00">y5</text>
</g>
<!-- y5&#45;&#45;t5 -->
<g id="edge13" class="edge"><title>y5&#45;&#45;t5</title>
<path fill="none" stroke="black" d="M498.429,-90.9503C492.658,-90.9503 486.888,-90.9503 481.117,-90.9503"/>
</g>
<!-- t6 -->
<g id="node14" class="node"><title>t6</title>
<polygon fill="black" stroke="black" points="580.835,-101.95 554.055,-101.95 554.055,-79.9503 580.835,-79.9503 580.835,-101.95"/>
<text text-anchor="middle" x="567.445" y="-86.7503" font-family="Times,serif" font-size="14.00" fill="white">t6</text>
</g>
<!-- y5&#45;&#45;t6 -->
<g id="edge17" class="edge"><title>y5&#45;&#45;t6</title>
<path fill="none" stroke="black" d="M536.585,-90.9503C542.372,-90.9503 548.158,-90.9503 553.944,-90.9503"/>
</g>
<!-- y6 -->
<g id="node8" class="node"><title>y6</title>
<ellipse fill="none" stroke="black" cx="617.445" cy="-90.9503" rx="18.9007" ry="18.9007"/>
<text text-anchor="middle" x="617.445" y="-86.7503" font-family="Times,serif" font-size="14.00">y6</text>
</g>
<!-- y6&#45;&#45;t6 -->
<g id="edge16" class="edge"><title>y6&#45;&#45;t6</title>
<path fill="none" stroke="black" d="M598.429,-90.9503C592.658,-90.9503 586.888,-90.9503 581.117,-90.9503"/>
</g>
<!-- t1&#45;&#45;x -->
<g id="edge3" class="edge"><title>t1&#45;&#45;x</title>
<path fill="none" stroke="black" d="M23.8996,-79.642C27.3342,-76.7673 31.3322,-73.9115 35.4448,-72 128.053,-28.9579 253.176,-20.8641 299.354,-19.3475"/>
</g>
<!-- t2&#45;&#45;x -->
<g id="edge6" class="edge"><title>t2&#45;&#45;x</title>
<path fill="none" stroke="black" d="M178.622,-79.7792C181.957,-77.0409 185.721,-74.2246 189.445,-72 226.818,-49.6747 275.33,-32.4244 300.547,-24.2331"/>
</g>
<!-- t3&#45;&#45;x -->
<g id="edge9" class="edge"><title>t3&#45;&#45;x</title>
<path fill="none" stroke="black" d="M274.609,-79.7848C283.25,-67.5233 297.822,-46.8446 307.537,-33.0599"/>
</g>
<!-- t4&#45;&#45;x -->
<g id="edge12" class="edge"><title>t4&#45;&#45;x</title>
<path fill="none" stroke="black" d="M360.281,-79.7848C351.64,-67.5233 337.067,-46.8446 327.353,-33.0599"/>
</g>
<!-- t5&#45;&#45;x -->
<g id="edge15" class="edge"><title>t5&#45;&#45;x</title>
<path fill="none" stroke="black" d="M456.268,-79.7792C452.932,-77.0409 449.169,-74.2246 445.445,-72 408.071,-49.6747 359.56,-32.4244 334.343,-24.2331"/>
</g>
<!-- t6&#45;&#45;x -->
<g id="edge18" class="edge"><title>t6&#45;&#45;x</title>
<path fill="none" stroke="black" d="M556.939,-79.7494C553.502,-76.8791 549.516,-73.9987 545.445,-72 472.851,-36.3595 375.346,-24.1029 335.524,-20.4118"/>
</g>
</g>
</svg>
