<?xml version="1.0" encoding="UTF-8" standalone="no"?>
<!DOCTYPE svg PUBLIC "-//W3C//DTD SVG 1.1//EN"
 "http://www.w3.org/Graphics/SVG/1.1/DTD/svg11.dtd">
<!-- Generated by graphviz version 2.38.0 (20140413.2041)
 -->
<!-- Title: %3 Pages: 1 -->
<svg width="656pt" height="142pt"
 viewBox="0.00 0.00 656.00 141.89" xmlns="http://www.w3.org/2000/svg" xmlns:xlink="http://www.w3.org/1999/xlink">
<g id="graph0" class="graph" transform="scale(1 1) rotate(0) translate(4 137.89)">
<title>%3</title>
<polygon fill="white" stroke="none" points="-4,4 -4,-137.89 651.998,-137.89 651.998,4 -4,4"/>
<!-- x -->
<g id="node1" class="node"><title>x</title>
<ellipse fill="lightgrey" stroke="black" cx="322.5" cy="-18" rx="18" ry="18"/>
<text text-anchor="middle" x="322.5" y="-14.3" font-family="Times,serif" font-size="14.00">x</text>
</g>
<!-- y0 -->
<g id="node2" class="node"><title>y0</title>
<ellipse fill="lightgrey" stroke="black" cx="63.5" cy="-91.4983" rx="18" ry="18"/>
<text text-anchor="middle" x="63.5" y="-87.7983" font-family="Times,serif" font-size="14.00">P</text>
</g>
<!-- t1 -->
<g id="node9" class="node"><title>t1</title>
<polygon fill="black" stroke="black" points="27,-102.998 0,-102.998 0,-79.9983 27,-79.9983 27,-102.998"/>
<text text-anchor="middle" x="13.5" y="-87.7983" font-family="Times,serif" font-size="14.00" fill="white">t1</text>
</g>
<!-- y0&#45;&#45;t1 -->
<g id="edge2" class="edge"><title>y0&#45;&#45;t1</title>
<path fill="none" stroke="black" d="M45.3359,-91.4983C39.2812,-91.4983 33.2266,-91.4983 27.1719,-91.4983"/>
</g>
<!-- y1 -->
<g id="node3" class="node"><title>y1</title>
<ellipse fill="none" stroke="black" cx="118.5" cy="-91.4983" rx="19.4965" ry="19.4965"/>
<text text-anchor="middle" x="118.5" y="-87.7983" font-family="Times,serif" font-size="14.00">y1</text>
</g>
<!-- y1&#45;&#45;t1 -->
<g id="edge1" class="edge"><title>y1&#45;&#45;t1</title>
<path fill="none" stroke="black" d="M107.478,-107.637C100.971,-115.687 91.9629,-124.622 81.5,-128.997 66.7385,-135.169 60.0289,-135.698 45.5,-128.997 33.9982,-123.691 25.1,-111.987 19.6393,-103.056"/>
</g>
<!-- t2 -->
<g id="node10" class="node"><title>t2</title>
<polygon fill="black" stroke="black" points="183,-102.998 156,-102.998 156,-79.9983 183,-79.9983 183,-102.998"/>
<text text-anchor="middle" x="169.5" y="-87.7983" font-family="Times,serif" font-size="14.00" fill="white">t2</text>
</g>
<!-- y1&#45;&#45;t2 -->
<g id="edge5" class="edge"><title>y1&#45;&#45;t2</title>
<path fill="none" stroke="black" d="M138.023,-91.4983C143.925,-91.4983 149.827,-91.4983 155.729,-91.4983"/>
</g>
<!-- y2 -->
<g id="node4" class="node"><title>y2</title>
<ellipse fill="none" stroke="black" cx="220.5" cy="-91.4983" rx="19.4965" ry="19.4965"/>
<text text-anchor="middle" x="220.5" y="-87.7983" font-family="Times,serif" font-size="14.00">y2</text>
</g>
<!-- y2&#45;&#45;t2 -->
<g id="edge4" class="edge"><title>y2&#45;&#45;t2</title>
<path fill="none" stroke="black" d="M200.896,-91.4983C194.946,-91.4983 188.996,-91.4983 183.047,-91.4983"/>
</g>
<!-- t3 -->
<g id="node11" class="node"><title>t3</title>
<polygon fill="black" stroke="black" points="285,-102.998 258,-102.998 258,-79.9983 285,-79.9983 285,-102.998"/>
<text text-anchor="middle" x="271.5" y="-87.7983" font-family="Times,serif" font-size="14.00" fill="white">t3</text>
</g>
<!-- y2&#45;&#45;t3 -->
<g id="edge8" class="edge"><title>y2&#45;&#45;t3</title>
<path fill="none" stroke="black" d="M240.023,-91.4983C245.925,-91.4983 251.827,-91.4983 257.729,-91.4983"/>
</g>
<!-- y3 -->
<g id="node5" class="node"><title>y3</title>
<ellipse fill="none" stroke="black" cx="322.5" cy="-91.4983" rx="19.4965" ry="19.4965"/>
<text text-anchor="middle" x="322.5" y="-87.7983" font-family="Times,serif" font-size="14.00">y3</text>
</g>
<!-- y3&#45;&#45;t3 -->
<g id="edge7" class="edge"><title>y3&#45;&#45;t3</title>
<path fill="none" stroke="black" d="M302.896,-91.4983C296.946,-91.4983 290.996,-91.4983 285.047,-91.4983"/>
</g>
<!-- t4 -->
<g id="node12" class="node"><title>t4</title>
<polygon fill="black" stroke="black" points="387,-102.998 360,-102.998 360,-79.9983 387,-79.9983 387,-102.998"/>
<text text-anchor="middle" x="373.5" y="-87.7983" font-family="Times,serif" font-size="14.00" fill="white">t4</text>
</g>
<!-- y3&#45;&#45;t4 -->
<g id="edge11" class="edge"><title>y3&#45;&#45;t4</title>
<path fill="none" stroke="black" d="M342.023,-91.4983C347.925,-91.4983 353.827,-91.4983 359.729,-91.4983"/>
</g>
<!-- y4 -->
<g id="node6" class="node"><title>y4</title>
<ellipse fill="none" stroke="black" cx="424.5" cy="-91.4983" rx="19.4965" ry="19.4965"/>
<text text-anchor="middle" x="424.5" y="-87.7983" font-family="Times,serif" font-size="14.00">y4</text>
</g>
<!-- y4&#45;&#45;t4 -->
<g id="edge10" class="edge"><title>y4&#45;&#45;t4</title>
<path fill="none" stroke="black" d="M404.896,-91.4983C398.946,-91.4983 392.996,-91.4983 387.047,-91.4983"/>
</g>
<!-- t5 -->
<g id="node13" class="node"><title>t5</title>
<polygon fill="black" stroke="black" points="489,-102.998 462,-102.998 462,-79.9983 489,-79.9983 489,-102.998"/>
<text text-anchor="middle" x="475.5" y="-87.7983" font-family="Times,serif" font-size="14.00" fill="white">t5</text>
</g>
<!-- y4&#45;&#45;t5 -->
<g id="edge14" class="edge"><title>y4&#45;&#45;t5</title>
<path fill="none" stroke="black" d="M444.023,-91.4983C449.925,-91.4983 455.827,-91.4983 461.729,-91.4983"/>
</g>
<!-- y5 -->
<g id="node7" class="node"><title>y5</title>
<ellipse fill="none" stroke="black" cx="526.5" cy="-91.4983" rx="19.4965" ry="19.4965"/>
<text text-anchor="middle" x="526.5" y="-87.7983" font-family="Times,serif" font-size="14.00">y5</text>
</g>
<!-- y5&#45;&#45;t5 -->
<g id="edge13" class="edge"><title>y5&#45;&#45;t5</title>
<path fill="none" stroke="black" d="M506.896,-91.4983C500.946,-91.4983 494.996,-91.4983 489.047,-91.4983"/>
</g>
<!-- t6 -->
<g id="node14" class="node"><title>t6</title>
<polygon fill="black" stroke="black" points="591,-102.998 564,-102.998 564,-79.9983 591,-79.9983 591,-102.998"/>
<text text-anchor="middle" x="577.5" y="-87.7983" font-family="Times,serif" font-size="14.00" fill="white">t6</text>
</g>
<!-- y5&#45;&#45;t6 -->
<g id="edge17" class="edge"><title>y5&#45;&#45;t6</title>
<path fill="none" stroke="black" d="M546.023,-91.4983C551.925,-91.4983 557.827,-91.4983 563.729,-91.4983"/>
</g>
<!-- y6 -->
<g id="node8" class="node"><title>y6</title>
<ellipse fill="none" stroke="black" cx="628.5" cy="-91.4983" rx="19.4965" ry="19.4965"/>
<text text-anchor="middle" x="628.5" y="-87.7983" font-family="Times,serif" font-size="14.00">y6</text>
</g>
<!-- y6&#45;&#45;t6 -->
<g id="edge16" class="edge"><title>y6&#45;&#45;t6</title>
<path fill="none" stroke="black" d="M608.896,-91.4983C602.946,-91.4983 596.996,-91.4983 591.047,-91.4983"/>
</g>
<!-- t1&#45;&#45;x -->
<g id="edge3" class="edge"><title>t1&#45;&#45;x</title>
<path fill="none" stroke="black" d="M24.4484,-79.8712C28.0399,-76.9086 32.2154,-73.9665 36.5,-72 130.814,-28.7126 258.003,-20.7695 304.513,-19.3202"/>
</g>
<!-- t2&#45;&#45;x -->
<g id="edge6" class="edge"><title>t2&#45;&#45;x</title>
<path fill="none" stroke="black" d="M181.673,-79.626C185.04,-76.9268 188.791,-74.1843 192.5,-72 230.513,-49.6134 279.759,-32.3885 305.352,-24.2173"/>
</g>
<!-- t3&#45;&#45;x -->
<g id="edge9" class="edge"><title>t3&#45;&#45;x</title>
<path fill="none" stroke="black" d="M279.025,-79.9485C287.892,-67.5182 302.657,-46.8178 312.485,-33.0404"/>
</g>
<!-- t4&#45;&#45;x -->
<g id="edge12" class="edge"><title>t4&#45;&#45;x</title>
<path fill="none" stroke="black" d="M365.975,-79.9485C357.108,-67.5182 342.343,-46.8178 332.515,-33.0404"/>
</g>
<!-- t5&#45;&#45;x -->
<g id="edge15" class="edge"><title>t5&#45;&#45;x</title>
<path fill="none" stroke="black" d="M463.327,-79.626C459.96,-76.9268 456.209,-74.1843 452.5,-72 414.487,-49.6134 365.241,-32.3885 339.648,-24.2173"/>
</g>
<!-- t6&#45;&#45;x -->
<g id="edge18" class="edge"><title>t6&#45;&#45;x</title>
<path fill="none" stroke="black" d="M566.5,-79.9798C562.907,-77.0216 558.743,-74.0547 554.5,-72 480.316,-36.0765 380.86,-23.956 340.573,-20.3558"/>
</g>
</g>
</svg>
