<?xml version="1.0" encoding="UTF-8" standalone="no"?>
<!DOCTYPE svg PUBLIC "-//W3C//DTD SVG 1.1//EN"
 "http://www.w3.org/Graphics/SVG/1.1/DTD/svg11.dtd">
<!-- Generated by graphviz version 2.38.0 (20140413.2041)
 -->
<!-- Title: %3 Pages: 1 -->
<svg width="655pt" height="176pt"
 viewBox="0.00 0.00 655.13 175.90" xmlns="http://www.w3.org/2000/svg" xmlns:xlink="http://www.w3.org/1999/xlink">
<g id="graph0" class="graph" transform="scale(1 1) rotate(0) translate(4 171.901)">
<title>%3</title>
<polygon fill="white" stroke="none" points="-4,4 -4,-171.901 651.127,-171.901 651.127,4 -4,4"/>
<!-- x -->
<g id="node1" class="node"><title>x</title>
<ellipse fill="lightgrey" stroke="black" cx="323.563" cy="-18" rx="18" ry="18"/>
<text text-anchor="middle" x="323.563" y="-13.8" font-family="Times,serif" font-size="14.00">x</text>
</g>
<!-- p(y1 | x, 1) -->
<g id="node2" class="node"><title>p(y1 | x, 1)</title>
<polygon fill="black" stroke="black" points="77.1905,-94 -0.0635812,-94 -0.0635812,-72 77.1905,-72 77.1905,-94"/>
<text text-anchor="middle" x="38.5635" y="-78.8" font-family="Times,serif" font-size="14.00" fill="white">p(y1 | x, 1)</text>
</g>
<!-- p(y1 | x, 1)&#45;&#45;x -->
<g id="edge2" class="edge"><title>p(y1 | x, 1)&#45;&#45;x</title>
<path fill="none" stroke="black" d="M77.2964,-73.438C139.849,-59.6106 260.666,-32.9038 305.897,-22.9052"/>
</g>
<!-- y1 -->
<g id="node3" class="node"><title>y1</title>
<ellipse fill="none" stroke="black" cx="38.5635" cy="-148.95" rx="18.9007" ry="18.9007"/>
<text text-anchor="middle" x="38.5635" y="-144.75" font-family="Times,serif" font-size="14.00">y1</text>
</g>
<!-- y1&#45;&#45;p(y1 | x, 1) -->
<g id="edge1" class="edge"><title>y1&#45;&#45;p(y1 | x, 1)</title>
<path fill="none" stroke="black" d="M38.5635,-129.796C38.5635,-118.275 38.5635,-103.789 38.5635,-94.2304"/>
</g>
<!-- p(y2 | x, 2) -->
<g id="node4" class="node"><title>p(y2 | x, 2)</title>
<polygon fill="black" stroke="black" points="172.191,-94 94.9364,-94 94.9364,-72 172.191,-72 172.191,-94"/>
<text text-anchor="middle" x="133.563" y="-78.8" font-family="Times,serif" font-size="14.00" fill="white">p(y2 | x, 2)</text>
</g>
<!-- p(y2 | x, 2)&#45;&#45;x -->
<g id="edge4" class="edge"><title>p(y2 | x, 2)&#45;&#45;x</title>
<path fill="none" stroke="black" d="M164.09,-71.878C204.582,-58.4519 274.66,-35.2153 306.7,-24.5917"/>
</g>
<!-- y2 -->
<g id="node5" class="node"><title>y2</title>
<ellipse fill="none" stroke="black" cx="133.563" cy="-148.95" rx="18.9007" ry="18.9007"/>
<text text-anchor="middle" x="133.563" y="-144.75" font-family="Times,serif" font-size="14.00">y2</text>
</g>
<!-- y2&#45;&#45;p(y2 | x, 2) -->
<g id="edge3" class="edge"><title>y2&#45;&#45;p(y2 | x, 2)</title>
<path fill="none" stroke="black" d="M133.563,-129.796C133.563,-118.275 133.563,-103.789 133.563,-94.2304"/>
</g>
<!-- p(y3 | x, 3) -->
<g id="node6" class="node"><title>p(y3 | x, 3)</title>
<polygon fill="black" stroke="black" points="267.191,-94 189.936,-94 189.936,-72 267.191,-72 267.191,-94"/>
<text text-anchor="middle" x="228.563" y="-78.8" font-family="Times,serif" font-size="14.00" fill="white">p(y3 | x, 3)</text>
</g>
<!-- p(y3 | x, 3)&#45;&#45;x -->
<g id="edge6" class="edge"><title>p(y3 | x, 3)&#45;&#45;x</title>
<path fill="none" stroke="black" d="M243.827,-71.878C261.765,-59.9823 291.316,-40.3853 308.962,-28.6831"/>
</g>
<!-- y3 -->
<g id="node7" class="node"><title>y3</title>
<ellipse fill="none" stroke="black" cx="228.563" cy="-148.95" rx="18.9007" ry="18.9007"/>
<text text-anchor="middle" x="228.563" y="-144.75" font-family="Times,serif" font-size="14.00">y3</text>
</g>
<!-- y3&#45;&#45;p(y3 | x, 3) -->
<g id="edge5" class="edge"><title>y3&#45;&#45;p(y3 | x, 3)</title>
<path fill="none" stroke="black" d="M228.563,-129.796C228.563,-118.275 228.563,-103.789 228.563,-94.2304"/>
</g>
<!-- p(y4 | x, 4) -->
<g id="node8" class="node"><title>p(y4 | x, 4)</title>
<polygon fill="black" stroke="black" points="362.191,-94 284.936,-94 284.936,-72 362.191,-72 362.191,-94"/>
<text text-anchor="middle" x="323.563" y="-78.8" font-family="Times,serif" font-size="14.00" fill="white">p(y4 | x, 4)</text>
</g>
<!-- p(y4 | x, 4)&#45;&#45;x -->
<g id="edge8" class="edge"><title>p(y4 | x, 4)&#45;&#45;x</title>
<path fill="none" stroke="black" d="M323.563,-71.878C323.563,-62.278 323.563,-47.6623 323.563,-36.228"/>
</g>
<!-- y4 -->
<g id="node9" class="node"><title>y4</title>
<ellipse fill="none" stroke="black" cx="323.563" cy="-148.95" rx="18.9007" ry="18.9007"/>
<text text-anchor="middle" x="323.563" y="-144.75" font-family="Times,serif" font-size="14.00">y4</text>
</g>
<!-- y4&#45;&#45;p(y4 | x, 4) -->
<g id="edge7" class="edge"><title>y4&#45;&#45;p(y4 | x, 4)</title>
<path fill="none" stroke="black" d="M323.563,-129.796C323.563,-118.275 323.563,-103.789 323.563,-94.2304"/>
</g>
<!-- p(y5 | x, 5) -->
<g id="node10" class="node"><title>p(y5 | x, 5)</title>
<polygon fill="black" stroke="black" points="457.191,-94 379.936,-94 379.936,-72 457.191,-72 457.191,-94"/>
<text text-anchor="middle" x="418.563" y="-78.8" font-family="Times,serif" font-size="14.00" fill="white">p(y5 | x, 5)</text>
</g>
<!-- p(y5 | x, 5)&#45;&#45;x -->
<g id="edge10" class="edge"><title>p(y5 | x, 5)&#45;&#45;x</title>
<path fill="none" stroke="black" d="M403.3,-71.878C385.362,-59.9823 355.811,-40.3853 338.165,-28.6831"/>
</g>
<!-- y5 -->
<g id="node11" class="node"><title>y5</title>
<ellipse fill="none" stroke="black" cx="418.563" cy="-148.95" rx="18.9007" ry="18.9007"/>
<text text-anchor="middle" x="418.563" y="-144.75" font-family="Times,serif" font-size="14.00">y5</text>
</g>
<!-- y5&#45;&#45;p(y5 | x, 5) -->
<g id="edge9" class="edge"><title>y5&#45;&#45;p(y5 | x, 5)</title>
<path fill="none" stroke="black" d="M418.563,-129.796C418.563,-118.275 418.563,-103.789 418.563,-94.2304"/>
</g>
<!-- p(y6 | x, 6) -->
<g id="node12" class="node"><title>p(y6 | x, 6)</title>
<polygon fill="black" stroke="black" points="552.191,-94 474.936,-94 474.936,-72 552.191,-72 552.191,-94"/>
<text text-anchor="middle" x="513.563" y="-78.8" font-family="Times,serif" font-size="14.00" fill="white">p(y6 | x, 6)</text>
</g>
<!-- p(y6 | x, 6)&#45;&#45;x -->
<g id="edge12" class="edge"><title>p(y6 | x, 6)&#45;&#45;x</title>
<path fill="none" stroke="black" d="M483.037,-71.878C442.545,-58.4519 372.467,-35.2153 340.427,-24.5917"/>
</g>
<!-- y6 -->
<g id="node13" class="node"><title>y6</title>
<ellipse fill="none" stroke="black" cx="513.563" cy="-148.95" rx="18.9007" ry="18.9007"/>
<text text-anchor="middle" x="513.563" y="-144.75" font-family="Times,serif" font-size="14.00">y6</text>
</g>
<!-- y6&#45;&#45;p(y6 | x, 6) -->
<g id="edge11" class="edge"><title>y6&#45;&#45;p(y6 | x, 6)</title>
<path fill="none" stroke="black" d="M513.563,-129.796C513.563,-118.275 513.563,-103.789 513.563,-94.2304"/>
</g>
<!-- p(y7 | x, 7) -->
<g id="node14" class="node"><title>p(y7 | x, 7)</title>
<polygon fill="black" stroke="black" points="647.191,-94 569.936,-94 569.936,-72 647.191,-72 647.191,-94"/>
<text text-anchor="middle" x="608.563" y="-78.8" font-family="Times,serif" font-size="14.00" fill="white">p(y7 | x, 7)</text>
</g>
<!-- p(y7 | x, 7)&#45;&#45;x -->
<g id="edge14" class="edge"><title>p(y7 | x, 7)&#45;&#45;x</title>
<path fill="none" stroke="black" d="M569.831,-73.438C507.278,-59.6106 386.461,-32.9038 341.23,-22.9052"/>
</g>
<!-- y7 -->
<g id="node15" class="node"><title>y7</title>
<ellipse fill="none" stroke="black" cx="608.563" cy="-148.95" rx="18.9007" ry="18.9007"/>
<text text-anchor="middle" x="608.563" y="-144.75" font-family="Times,serif" font-size="14.00">y7</text>
</g>
<!-- y7&#45;&#45;p(y7 | x, 7) -->
<g id="edge13" class="edge"><title>y7&#45;&#45;p(y7 | x, 7)</title>
<path fill="none" stroke="black" d="M608.563,-129.796C608.563,-118.275 608.563,-103.789 608.563,-94.2304"/>
</g>
</g>
</svg>
